<svg width="107" height="175" viewBox="0 0 107 175" fill="none" xmlns="http://www.w3.org/2000/svg">
<path d="M105.909 88.6255C104.176 87.6965 102.176 87.6965 100.244 87.8955C97.9773 88.161 95.7112 88.6919 93.5117 89.3555C88.9793 90.6826 84.647 92.5406 80.3146 94.5314L80.5811 94.9296C83.3805 92.408 86.0467 89.6209 88.6461 86.8338C89.9125 85.4403 91.1789 84.0468 92.4453 82.6533C93.1118 81.9234 93.7783 81.1934 94.4448 80.3971C94.7781 79.9989 95.5779 79.4017 95.7112 78.8708C95.7112 78.8045 95.7112 78.6717 95.7112 78.6054C95.1114 78.0745 94.2449 78.6054 93.645 78.9372C92.312 79.6007 90.9789 80.3307 89.7125 81.127C87.1797 82.5869 84.7803 84.2459 82.4474 85.9712C77.8484 89.4882 73.6493 93.536 70.1168 98.1147L70.5833 98.3138C71.3165 96.1904 71.8497 94.0005 72.2496 91.8107C72.3829 90.8153 72.5163 89.8863 72.6496 88.8909C72.6496 88.36 72.7162 87.8956 72.7829 87.3647C72.7829 87.0993 72.9162 86.5684 72.7829 86.303C71.9164 84.9095 70.9832 87.9619 70.8499 88.2937C69.8502 90.3508 68.5838 92.2088 67.3174 94.1332C66.051 96.0576 64.8512 97.7166 63.8515 99.641C62.8517 101.565 62.1185 103.49 61.3854 105.414C60.5855 107.538 59.919 109.727 59.3192 111.917C59.0526 112.913 58.7859 113.908 58.5193 114.903C58.3193 115.7 58.1861 116.496 57.7195 117.226C54.7202 121.274 51.9208 125.587 49.4546 129.967L49.9212 130.166C53.1871 116.098 57.3196 102.229 62.1185 88.6255C63.4516 84.7768 64.8512 80.9943 66.2509 77.1455L65.9844 77.3446C68.3839 77.4773 70.5834 76.1502 72.6496 75.0221C75.0491 73.6286 77.3152 72.036 79.5814 70.377C84.047 66.9927 88.3128 63.4093 92.4453 59.6933C93.5117 58.6979 94.5782 57.7689 95.6446 56.7736C96.1112 56.309 96.5777 55.9109 97.1109 55.4464C97.3775 55.181 97.9774 54.8492 98.044 54.451C98.1774 53.1239 93.5117 54.1855 92.9118 54.3183C87.9129 55.7118 83.4472 59.0297 79.5147 62.2812C74.7824 66.1964 70.45 70.6424 66.4509 75.2211L66.8508 75.4866C69.3836 68.5853 72.2496 61.8167 75.1823 55.0482C75.9155 53.3892 76.6487 51.7303 77.3819 50.1377C77.7151 49.3414 78.115 48.6115 78.4483 47.8815C78.7149 47.2843 78.9815 46.488 79.3814 45.9571C79.5814 45.6253 80.1146 45.3599 80.3812 45.0944C80.7145 44.829 81.0478 44.4973 81.381 44.1655C81.9809 43.5683 82.5807 42.971 83.1806 42.3738C84.3137 41.1793 85.3801 39.9186 86.2466 38.525C86.5798 37.9942 87.9796 35.6716 87.1131 35.2071C86.7132 35.008 86.0466 35.4062 85.78 35.5389C84.9136 35.9371 84.1137 36.4679 83.3806 37.0651L83.7805 37.3305C84.3137 35.6052 84.8469 33.8799 85.0469 32.0219C85.1135 31.2919 85.6468 28.6376 84.647 28.4385C83.6472 28.2394 82.5141 29.5666 81.9809 30.2966C80.9811 31.6238 80.3812 33.2827 79.848 34.8089H80.3146C80.048 34.1453 79.2481 32.8182 78.4483 33.5482C78.115 33.8136 77.9151 34.5435 77.7818 34.9417C77.5818 35.6052 77.4485 36.2688 77.3819 36.9988C77.2486 38.525 77.3818 40.1176 77.5818 41.7102C77.6484 42.4401 77.7817 43.1038 77.915 43.8337C77.9817 44.2318 78.115 44.6963 78.1817 45.0944C78.1817 45.2935 78.4483 45.6917 78.4483 45.9571C78.4483 46.0898 78.1151 46.488 78.0484 46.687C77.8484 47.0852 77.6485 47.4834 77.4485 47.9479C76.982 48.8769 76.582 49.8059 76.1821 50.7349C75.4489 52.3938 74.7158 54.0528 73.9826 55.7118C72.5163 59.0297 71.1166 62.414 69.7835 65.7983C64.1847 79.5344 59.2525 93.536 54.9868 107.737C53.787 111.718 52.6539 115.7 51.5875 119.748C51.0542 121.738 50.5211 123.795 50.0545 125.786C49.7879 126.782 49.588 127.777 49.3214 128.772C49.188 129.303 49.0547 129.9 48.9214 130.431C48.7881 130.962 48.7881 131.626 48.5215 132.09H48.9881C48.1883 130.232 47.3218 128.374 46.4553 126.516C45.9221 125.521 46.122 124.459 46.122 123.331C46.122 122.203 46.1886 121.008 46.2553 119.88C46.3886 115.567 46.6552 111.187 46.8552 106.874C46.9885 104.751 47.1218 102.627 47.2551 100.437C47.2551 99.4419 47.3884 98.4465 47.4551 97.4511C47.4551 96.9203 47.455 96.323 47.5883 95.7922C47.7216 95.1286 47.9882 94.5314 48.2549 93.9342C49.9878 89.8863 51.7208 85.8385 53.5204 81.7906C55.1867 78.0082 56.853 74.2257 58.7859 70.576C60.7188 66.9263 62.3851 63.6085 63.5182 59.7597C63.7848 58.8307 64.0515 57.9016 64.3181 56.9062C64.4514 56.4417 64.518 55.9773 64.6513 55.4464C64.7846 54.9155 65.0513 54.1855 64.9846 53.6547C64.9846 53.3892 64.8512 53.2566 64.5846 53.1902C64.1181 53.0575 63.8515 53.4556 63.6516 53.7874C61.2521 57.039 59.2525 60.4896 57.3196 64.0065C52.9206 72.0359 49.5213 80.5961 47.5217 89.4881H47.9883C48.7215 80.7952 49.5879 72.1023 50.721 63.4094C51.2542 59.0961 51.9207 54.7828 52.5872 50.4695C52.9205 48.4788 53.2538 46.488 53.6537 44.5636C53.7204 44.1655 53.7203 43.5682 53.9203 43.2365C54.0536 42.971 54.3202 42.8383 54.5868 42.7056C55.2533 42.241 55.7866 41.7102 56.3198 41.1129C57.5862 39.5867 58.7193 37.8614 59.6524 36.1361C59.8524 35.7379 60.5855 34.9417 60.1856 34.5435C59.719 34.079 58.5193 34.4108 58.0528 34.5435L58.386 34.8753C58.6526 33.6809 58.9192 32.4864 59.0525 31.292C59.1192 30.6284 59.3858 29.633 58.4527 29.5667L58.6527 29.9648C59.4525 28.1731 59.7191 26.3151 59.9857 24.3907C60.119 23.3289 60.2523 22.3336 60.319 21.2719C60.319 20.6747 60.3189 20.4092 59.7191 20.3428L59.9857 20.6083C60.2523 18.4848 60.4522 16.295 60.4522 14.1051C60.4522 13.0434 60.4523 12.0481 60.319 10.9863C60.2523 10.4555 60.2523 9.26098 59.8523 8.86283V9.12828C60.1189 8.59741 60.0523 7.73474 60.0523 7.20387C60.0523 6.34121 60.0523 5.4786 60.0523 4.6823C60.0523 3.28878 59.919 1.76251 59.2525 0.501699C58.7192 -0.560034 57.8528 0.302608 57.3196 0.899832C56.3198 1.96156 55.7199 3.28878 55.3867 4.6823H55.8532C55.6533 4.21779 55.52 3.48784 54.8534 3.75327C54.1203 4.0187 53.9203 5.41223 53.7204 6.07581C53.0539 8.66378 52.654 11.3181 52.3207 13.9725L52.7206 13.7734C51.4542 13.1761 51.3209 15.7641 51.2542 16.494C50.9876 18.6175 50.9209 20.741 50.9209 22.9308L51.3209 22.7317C51.0543 22.5326 50.6543 22.2009 50.2544 22.3336C49.7879 22.5327 49.8545 23.3953 49.7879 23.7271C49.5879 25.3861 49.5879 27.1114 49.5213 28.7703L49.9212 28.5713C49.6545 28.2395 49.188 27.6422 48.7215 27.7749C48.2549 27.9077 48.1882 28.8367 48.1882 29.2349C47.9216 31.2256 48.1883 33.349 48.3882 35.3398L48.7215 35.0743C48.0549 34.9416 46.9219 34.8753 46.9885 35.7379C46.9885 36.866 47.5217 38.0605 48.0549 39.0558C49.1214 40.9802 50.921 42.5065 53.0539 43.1701L52.8539 42.8383C51.5875 49.1424 50.6544 55.579 49.7879 62.0158C48.9214 68.4525 48.1882 75.3539 47.5217 81.9897H48.0549C48.0549 75.2875 47.7217 68.4526 46.322 61.8831C45.9887 60.2905 45.5221 58.6979 44.9222 57.1054C44.6556 56.4418 44.3891 55.8445 44.0558 55.1809C43.8559 54.7828 43.5892 54.1856 43.1893 53.9201C42.1895 53.3229 42.1896 54.7164 42.0563 55.38C41.7896 56.9062 41.6563 58.4989 41.5896 60.0915C41.2564 66.9264 41.923 73.8276 42.7228 80.5961C43.1227 83.914 43.5892 87.2319 44.1225 90.5499C44.3891 92.2752 44.7224 94.0669 44.989 95.7922C45.2556 97.3848 45.7221 99.0438 45.922 100.636C46.0553 101.632 45.9221 102.693 45.7888 103.689C45.7888 104.751 45.6554 105.746 45.5888 106.808C45.4555 108.732 45.3889 110.59 45.3222 112.515C45.1223 116.496 44.9889 120.478 44.8556 124.459L45.3222 124.326C45.0556 123.862 44.7223 123.331 44.5224 122.866C44.2557 122.269 44.1891 121.606 44.0558 120.942C43.8559 119.814 43.5893 118.686 43.3227 117.558C42.8561 115.368 42.3895 113.112 41.9229 110.922C40.9898 106.476 39.99 102.03 38.9236 97.6502C37.9238 93.4033 36.8574 89.2227 35.5243 85.0422C34.1913 80.8616 33.2582 76.681 32.4583 72.3678C31.6585 67.9217 30.992 63.4757 30.3921 59.0297C30.2588 57.9016 30.1255 56.7735 29.9255 55.7118C29.8589 55.1145 29.7923 54.5837 29.7256 53.9865C29.7256 53.522 29.3923 52.7257 29.5256 52.2612C29.6589 51.863 29.9922 51.7303 30.2588 51.4649C30.5254 51.1995 30.7921 50.934 30.992 50.6022C31.5252 49.8723 31.9918 49.076 32.3917 48.2133C34.1247 44.4973 35.1244 40.383 35.9242 36.4015C36.3908 34.2117 36.7907 32.0219 37.124 29.8985C37.2573 28.9694 37.3906 27.974 37.5905 27.045C37.5905 26.6469 37.6572 26.3151 37.1906 26.3151C36.5908 26.3151 35.9909 26.846 35.5243 27.2441C34.7911 27.8413 34.2579 28.6376 33.7914 29.4339C32.6583 31.2919 31.9251 33.4154 31.2586 35.5389C29.9255 40.0513 29.1257 44.829 28.7258 49.5405H29.259C28.7924 45.8908 28.3926 42.2411 27.9927 38.525C27.7927 36.7334 27.5927 34.9416 27.4594 33.0836C27.3261 31.5574 27.4594 29.9648 27.2594 28.4385L27.0595 28.704C29.9922 27.7086 30.5254 23.5944 30.792 20.9401C30.792 20.4756 30.8587 20.011 30.9253 19.5465C30.9253 19.1483 31.0586 18.6175 30.9253 18.2193C30.8587 17.9539 30.7254 17.7549 30.3921 17.6885C29.1924 17.4894 28.2592 19.2147 27.8593 20.0774L28.3259 20.2101C28.3259 19.4138 28.0593 13.3089 26.393 13.9725C26.0597 14.1052 25.9264 14.7024 25.7931 15.0342C25.5265 15.7641 25.3932 16.4941 25.2599 17.2904C24.9933 18.883 24.86 20.4755 24.7933 22.1345L25.2599 22.0018C24.7933 21.2055 24.3268 20.4755 23.7269 19.8119C23.1271 19.1484 22.2606 18.2193 21.3941 17.8212C19.8611 17.224 20.3943 19.8783 20.5276 20.6083C20.9275 24.5234 22.8604 28.5049 25.3932 31.5574C25.5932 31.8228 25.9931 32.0882 26.1264 32.3537C26.3263 32.7518 26.2597 33.4818 26.3264 33.9463C26.4597 35.2071 26.593 36.4679 26.7263 37.7287C26.9929 40.1176 27.2595 42.5065 27.5261 44.8954C28.0593 49.4741 28.5925 54.0528 29.259 58.6315C29.9922 63.9402 30.792 69.1825 31.7918 74.4248L32.2583 74.2921C30.1921 68.6516 27.6594 63.2103 24.86 57.9016C23.4603 55.3136 21.994 52.7257 20.461 50.1377C19.6611 48.8769 18.928 47.6161 18.0615 46.2889C17.7282 45.758 17.3283 44.829 16.5285 44.9618C16.4618 44.9618 16.3952 45.0281 16.3286 45.1609C16.2619 45.559 16.4618 45.9571 16.5951 46.3553C16.7951 47.0188 16.9284 47.6161 17.1283 48.2797C17.4616 49.5405 17.8615 50.8677 18.1948 52.1285C18.9279 54.6501 19.7278 57.2381 20.6609 59.7597C21.4608 62.0159 22.2605 64.3384 23.5269 66.3955C24.86 68.6517 26.393 70.7088 27.7927 72.8986C29.1924 75.0884 30.5921 77.4773 31.9918 79.7335C32.6583 80.8616 33.4581 81.9897 33.858 83.1841C34.2579 84.3786 34.7245 85.7058 35.1244 86.9666C36.7241 92.2089 37.8572 97.5839 39.0569 102.959C40.39 108.931 41.6563 114.97 42.9227 120.942L43.3893 120.743C41.5897 117.823 39.5901 115.036 37.124 112.647C36.0576 111.519 34.7911 110.59 33.5914 109.661C32.2583 108.666 31.3252 106.874 30.592 105.414C29.059 102.295 28.1259 98.9774 26.9262 95.7258C25.7264 92.4743 24.3268 89.0237 22.7938 85.7721C21.2608 82.5205 19.6611 79.0036 18.0615 75.6857C17.6616 74.9557 17.3283 74.1594 16.9284 73.4295C16.7284 73.0313 16.5285 72.6331 16.3286 72.235C16.1953 71.9696 16.0619 71.4387 15.7953 71.2396C15.5953 71.1069 15.1955 71.1069 14.9955 71.2396C14.5956 71.5714 14.8622 72.3014 14.8622 72.6995C15.1288 79.4681 16.7284 86.303 19.2612 92.607C21.8606 99.1101 25.7931 105.016 31.4586 109.329L31.7252 108.865C26.593 106.343 21.3941 103.954 16.1286 101.831C13.4625 100.769 10.7298 99.7737 7.99704 99.0438C6.73065 98.712 5.39759 98.3801 4.06455 98.1811C3.19807 98.0483 1.73169 97.9156 0.865212 98.4465C0.265343 98.8447 0.998565 99.2428 1.33183 99.4419C2.59822 100.172 3.86457 100.902 5.13096 101.632C7.66375 103.025 10.1965 104.286 12.796 105.547C17.7282 107.869 22.9937 109.993 28.3926 110.789C29.7256 110.988 30.992 111.055 32.3251 110.922C32.5917 110.922 32.9249 110.789 33.1249 110.856C33.3248 110.922 33.7914 111.187 34.058 111.386C34.6579 111.851 35.1911 112.315 35.7243 112.846C37.7239 114.771 39.4568 116.96 41.0565 119.283C41.8563 120.411 42.9227 121.738 43.3227 123.132C43.7226 124.525 43.9225 125.985 44.1891 127.379C44.3224 128.042 44.5223 128.706 44.589 129.369C44.7223 130.232 44.589 131.161 44.589 132.024C44.589 133.417 44.589 134.877 44.5224 136.271C44.5224 137.797 44.6557 139.323 44.0558 140.717C43.5226 141.911 43.056 143.106 42.5894 144.3C41.523 146.888 40.6565 149.542 39.7901 152.197C38.1238 157.572 36.8574 163.08 35.9909 168.587C35.9243 169.118 35.391 170.445 36.0576 170.777C36.8574 171.175 36.8573 170.313 36.924 169.782C37.3239 166.995 37.8572 164.208 38.457 161.487C39.6568 156.112 41.2564 150.803 43.2559 145.627C43.7892 144.234 44.3224 142.907 44.9222 141.513L44.4557 141.38C44.4557 143.238 44.4557 145.03 44.4557 146.888C44.4557 148.812 44.589 150.737 44.4557 152.661C44.3224 154.387 43.9892 156.178 43.7226 157.904C43.456 159.762 43.256 161.62 43.056 163.478C42.8561 165.336 42.7227 167.061 42.5228 168.919C42.5228 169.782 42.3895 170.644 42.3229 171.441C42.3229 171.905 42.3228 172.37 42.2562 172.834C42.2562 173.232 42.0562 174.029 42.1895 174.36C42.3895 174.825 43.056 174.825 43.2559 174.36C43.3893 174.161 43.256 173.83 43.3227 173.564C43.3227 173.1 43.3226 172.635 43.3893 172.171C43.3893 171.175 43.5226 170.246 43.5892 169.251C43.9225 165.137 44.389 160.956 44.9222 156.842H44.3891C44.3891 160.492 44.5223 164.141 44.589 167.791C44.589 169.583 44.6557 171.374 44.7223 173.232C44.7223 173.631 44.589 174.294 44.9222 174.56C45.1222 174.692 45.5222 174.759 45.7221 174.626C46.0554 174.36 45.8554 173.697 45.8554 173.365C45.8554 172.37 45.8554 171.441 45.7888 170.445C45.7888 168.587 45.7221 166.796 45.6555 164.938C45.5888 161.288 45.5221 157.638 45.5221 153.988C45.5221 151.865 45.9887 149.741 46.322 147.618C46.6553 145.495 47.0551 143.504 47.4551 141.447H46.9885C48.8548 150.803 50.721 160.16 52.5206 169.583C52.5873 170.047 52.5206 170.777 53.1205 170.843C53.4538 170.91 53.787 170.843 53.787 170.445C53.787 170.047 53.587 169.516 53.5204 169.118C53.3871 168.587 53.3204 167.99 53.1871 167.459C52.9205 166.265 52.7206 165.004 52.454 163.743C51.5208 158.965 50.5877 154.254 49.6546 149.476C49.1214 146.888 48.5881 144.3 48.1216 141.712C47.9883 141.049 47.7217 140.252 47.7883 139.522C47.7883 138.925 48.0549 138.328 48.1216 137.731C48.3882 136.47 48.6548 135.209 48.9214 133.948H48.4548C51.3875 141.181 53.5871 148.746 55.32 156.377C55.52 157.306 55.7199 158.235 55.9198 159.164C56.0532 159.695 56.1198 160.16 56.2531 160.624C56.3198 160.956 56.2531 161.62 56.5197 161.885C56.853 162.35 57.5862 162.084 57.5862 161.62C57.5862 161.155 57.3863 160.558 57.3196 160.093C57.253 159.629 57.1196 159.231 57.053 158.766C56.853 157.704 56.5864 156.643 56.3198 155.647C55.8533 153.789 55.3866 151.931 54.9201 150.073C53.9203 146.357 52.7872 142.641 51.5208 138.991C50.8543 137.2 50.1878 135.408 49.4546 133.616C49.188 132.953 49.188 132.621 49.4546 131.957C49.6546 131.559 49.8546 131.161 50.0545 130.829C50.5211 129.967 50.9876 129.104 51.5208 128.308C53.4537 125.056 55.4534 121.937 57.6529 118.885C57.9195 118.553 58.1194 118.155 58.386 117.823C58.7859 117.425 59.3191 117.226 59.8523 116.96C60.7188 116.496 61.6519 116.031 62.5851 115.633C64.318 114.771 66.1176 113.908 67.8506 113.112C71.8497 111.254 75.8489 109.396 80.048 107.803C82.1142 107.007 84.1804 106.277 86.3133 105.746C87.4464 105.414 88.5794 105.149 89.7792 105.082C90.3124 105.082 90.8456 105.149 91.3122 105.082C91.5122 105.082 91.6454 105.082 91.7787 104.95C91.8454 104.817 91.8454 104.684 91.7787 104.618C91.1789 103.822 89.6459 103.423 88.7127 103.158C87.513 102.826 86.2466 102.627 84.9802 102.561C82.1809 102.362 79.3148 102.826 76.6487 103.689C71.1833 105.481 66.3843 108.865 62.1185 112.647L62.5184 112.913C63.5849 111.519 64.5847 110.126 65.7178 108.798C66.7842 107.604 67.9173 106.41 69.0504 105.215C69.317 104.883 69.6503 104.618 69.9835 104.286C70.3168 103.954 70.5834 103.822 71.0499 103.822C71.8498 103.755 72.6496 103.822 73.4494 103.689C75.1157 103.49 76.782 103.092 78.3817 102.561C84.7803 100.703 90.9123 97.7166 96.711 94.5314C98.444 93.6023 100.11 92.6734 101.777 91.678C102.576 91.2135 103.376 90.7489 104.243 90.2181C104.709 89.9526 105.842 89.4882 106.109 88.9573C106.109 88.8246 106.109 88.7582 106.109 88.6919H106.042C105.842 88.3601 105.509 88.6919 105.709 88.9573H105.776C105.776 89.0237 105.776 88.7582 105.776 88.7582C105.642 89.0237 104.909 89.2891 104.709 89.4881C104.376 89.6872 104.043 89.8863 103.709 90.0854C102.976 90.4835 102.243 90.9481 101.577 91.3462C100.11 92.2089 98.5773 93.0715 97.0443 93.8678C94.1116 95.4604 91.1122 96.9866 87.9796 98.3802C84.8469 99.7737 81.6476 101.101 78.3817 102.096C76.6487 102.627 74.8491 103.025 72.9829 103.224C72.183 103.291 71.3832 103.224 70.65 103.291C70.0502 103.291 69.7168 103.954 69.2503 104.419C67.9839 105.746 66.7175 107.073 65.5178 108.467C64.318 109.86 63.3182 111.254 62.2518 112.647C62.0518 112.846 62.4518 113.112 62.6518 112.913C66.6509 109.329 71.2499 106.078 76.3821 104.22C78.8482 103.357 81.4476 102.826 84.1137 102.893C85.3801 102.893 86.6465 103.025 87.9129 103.291C88.4461 103.423 89.046 103.556 89.5792 103.755C90.179 103.954 91.1789 104.286 91.6455 104.817V104.485C91.6455 104.551 90.779 104.485 90.6457 104.485C90.2458 104.485 89.7792 104.485 89.3793 104.618C88.5128 104.751 87.5797 104.95 86.7132 105.149C84.9136 105.613 83.114 106.21 81.3144 106.874C77.8485 108.135 74.4492 109.595 71.1166 111.121C67.784 112.647 64.2514 114.306 60.8521 116.031C60.4522 116.231 60.0523 116.43 59.6524 116.629C59.3192 116.828 58.7859 116.961 58.4527 117.226C57.9194 117.69 57.4529 118.553 57.053 119.15C55.9865 120.61 54.9868 122.136 53.987 123.663C52.9872 125.189 52.0541 126.781 51.1209 128.374C50.6544 129.104 50.2544 129.9 49.8545 130.63C49.4546 131.294 48.8547 132.09 48.8547 132.886C48.8547 133.484 49.3879 134.28 49.5879 134.877C49.9212 135.806 50.3211 136.735 50.6544 137.664C51.3209 139.456 51.9208 141.181 52.454 142.973C53.5871 146.49 54.5868 150.14 55.52 153.723C55.9865 155.581 56.4531 157.439 56.7864 159.363C56.853 159.828 56.9863 160.226 57.053 160.691C57.053 160.956 57.3196 162.151 57.053 161.288C56.7864 160.425 56.6531 159.43 56.4531 158.501C54.6535 150.14 52.3207 141.911 49.1214 133.948C49.0547 133.749 48.7215 133.683 48.6548 133.948C48.4549 134.944 48.1883 135.939 47.9883 136.934C47.7884 137.863 47.3884 138.925 47.3884 139.92C47.3884 140.783 47.7883 141.845 47.9216 142.708C48.1216 143.836 48.3882 144.964 48.5881 146.092C49.4546 150.471 50.3211 154.917 51.1876 159.297C51.5875 161.421 52.0541 163.61 52.454 165.734C52.6539 166.729 52.8539 167.725 53.0539 168.72C53.1205 169.118 53.4538 169.981 53.3871 170.379C53.3871 170.644 53.3871 170.379 53.2538 170.246C53.1205 169.914 53.1205 169.45 53.0539 169.052C52.254 164.738 51.3875 160.425 50.521 156.112C49.5879 151.201 48.5881 146.291 47.5883 141.447C47.5883 141.181 47.1218 141.181 47.1218 141.447C46.5219 144.698 45.9221 147.95 45.3889 151.201C44.8556 154.453 45.1222 157.505 45.1889 160.691C45.1889 164.009 45.3222 167.326 45.3889 170.644C45.3889 171.441 45.3889 172.237 45.3889 173.033C45.3889 173.166 45.4555 174.228 45.3889 174.228C45.2556 174.294 45.2555 173.166 45.2555 173.1C45.2555 171.507 45.1889 169.914 45.1222 168.388C45.0556 164.606 44.9889 160.89 44.9222 157.107C44.9222 156.775 44.4557 156.775 44.3891 157.107C43.9892 160.292 43.5893 163.544 43.3227 166.796C43.1894 168.455 43.056 170.113 42.9227 171.772C42.9227 172.171 42.9227 172.569 42.8561 172.967C42.8561 173.232 42.8561 173.896 42.8561 174.161C42.6561 174.493 42.7228 173.697 42.7894 173.564C42.7894 173.1 42.7894 172.635 42.8561 172.171C43.056 168.919 43.3893 165.601 43.7226 162.35C43.9225 160.757 44.1225 159.164 44.3224 157.638C44.5224 156.112 44.9223 154.387 44.989 152.794C45.1223 149.078 44.989 145.362 44.989 141.646C44.989 141.447 44.589 141.314 44.5224 141.513C42.4561 146.291 40.7232 151.135 39.3902 156.112C38.657 158.7 38.0571 161.354 37.5239 164.009C37.3239 165.203 37.0573 166.331 36.8574 167.525C36.7241 168.189 36.6574 168.786 36.5907 169.45C36.5907 169.516 36.4575 170.379 36.4575 170.445C36.1909 170.445 36.4575 169.583 36.4575 169.384C37.2573 164.075 38.3904 158.833 39.9901 153.723C40.7232 151.268 41.5897 148.812 42.5228 146.424C42.9894 145.229 43.4559 144.035 43.9225 142.84C44.389 141.712 45.0556 140.65 45.0556 139.456C45.0556 136.603 45.1222 133.749 45.1889 130.962C45.1889 129.768 44.9889 128.706 44.7223 127.578C44.4557 126.184 44.1891 124.724 43.8558 123.331C43.5892 122.203 42.7228 121.141 42.0563 120.212C41.3231 119.084 40.5899 118.022 39.7901 116.96C38.2571 114.97 36.5908 113.112 34.6579 111.519C34.3913 111.254 33.9247 110.856 33.5914 110.723C33.2581 110.59 32.325 110.856 31.9251 110.856C30.5254 110.856 29.1257 110.789 27.7927 110.524C25.1266 110.059 22.5272 109.263 19.9944 108.4C14.9289 106.609 10.1299 104.153 5.39759 101.632C4.73107 101.234 3.99791 100.902 3.33139 100.504C3.13143 100.371 1.26517 99.4419 1.33183 99.3092C1.33183 98.9774 2.93141 99.1101 3.26467 99.1101C4.13115 99.1101 4.93102 99.3092 5.73085 99.5082C8.66354 100.105 11.4629 101.101 14.2623 102.163C20.1277 104.419 25.8598 107.073 31.4586 109.794C31.7252 109.926 31.9918 109.528 31.7252 109.329C21.6607 101.632 16.9284 88.4928 15.662 76.2828C15.5954 75.4865 15.5287 74.7566 15.462 73.9603C15.462 73.5621 15.3287 73.0313 15.462 72.6331C15.462 72.434 15.2621 72.1023 15.7287 72.235C15.7953 72.235 15.9953 72.7659 15.9953 72.8322C16.7951 74.3585 17.5282 75.9511 18.2614 77.4773C19.7277 80.5961 21.1941 83.715 22.5938 86.8338C23.9935 89.9526 25.3265 93.2705 26.5263 96.5221C27.5927 99.4419 28.4592 102.362 29.7256 105.215C30.3921 106.675 31.1919 108.135 32.1917 109.396C33.1915 110.656 34.6579 111.453 35.7909 112.515C38.657 115.036 40.8565 118.221 42.8561 121.406C42.9894 121.672 43.3893 121.473 43.3227 121.207C41.7897 113.775 40.19 106.41 38.457 99.0438C37.5905 95.394 36.7241 91.678 35.6577 88.0946C35.3911 87.232 35.1244 86.3693 34.8578 85.5066C34.5912 84.644 34.3913 83.6486 33.9914 82.8523C33.6581 82.1224 33.1915 81.4588 32.7916 80.7289C32.2584 79.8662 31.7251 79.0036 31.2586 78.1409C29.3923 75.0221 27.5261 71.9032 25.4599 68.8507C24.4601 67.3909 23.5269 66.0637 22.8604 64.4711C22.1272 62.8121 21.5274 61.0868 20.9275 59.3615C19.7277 55.9108 18.6614 52.3939 17.7282 48.8106C17.5283 47.9479 17.3283 47.0852 17.0617 46.2226C17.0617 46.2226 17.0617 45.7581 16.8617 45.8244C16.995 45.8244 17.3283 46.2889 17.395 46.4216C17.7282 46.8197 17.9281 47.2843 18.2614 47.7488C19.1945 49.2086 20.1277 50.6686 20.9942 52.1948C25.2599 59.3615 29.0591 66.9264 31.8584 74.7566C31.9918 75.0221 32.3917 74.9557 32.3251 74.6239C30.7254 66.1964 29.5923 57.7026 28.5925 49.2087C28.0593 44.9618 27.5927 40.6485 27.1928 36.3352C27.0595 35.2734 26.9928 34.2781 26.8595 33.2164C26.8595 32.9509 26.8596 32.6191 26.7263 32.42C26.593 32.1546 26.2597 31.9555 26.0597 31.7564C24.7267 30.2302 23.6603 28.3721 22.7938 26.5141C21.794 24.3906 21.0608 22.0018 21.0608 19.6129C21.0608 19.1484 20.8608 18.2194 21.594 18.6839C22.0606 19.0157 22.5271 19.4138 22.927 19.8119C23.7269 20.6082 24.3934 21.5372 24.9266 22.5326C25.0599 22.7317 25.3932 22.6654 25.3932 22.3999C25.5265 20.2101 25.5932 17.9539 26.193 15.8968C26.193 15.6977 26.393 15.0342 26.5263 14.9678C26.7929 14.8351 27.0595 15.3659 27.1262 15.565C27.3261 16.0295 27.3928 16.5604 27.5261 17.0249C27.7927 18.2194 27.8593 19.3474 27.926 20.5419C27.926 20.7409 28.2593 20.9401 28.3926 20.6746C28.5925 20.1438 28.8591 19.6129 29.259 19.2147C29.5923 18.8166 30.3921 18.153 30.5254 18.9493C30.5921 19.4802 30.5254 20.1438 30.4588 20.6083C30.4588 21.3382 30.3255 22.0681 30.1921 22.7317C29.8589 24.7888 29.2591 27.7086 26.9929 28.5049C26.9262 28.5049 26.7929 28.6376 26.7929 28.7703C26.9262 30.2966 26.7929 31.7565 26.9929 33.2827C27.1929 35.1407 27.3928 36.9988 27.5261 38.8568C27.926 42.5065 28.3259 46.1562 28.7925 49.8723C28.7925 50.2041 29.2591 50.2041 29.3257 49.8723C29.7256 45.6917 30.3921 41.5111 31.4586 37.4632C31.9918 35.4725 32.5916 33.4818 33.4581 31.6238C33.7914 30.8938 34.1913 30.1638 34.6579 29.4339C35.1245 28.704 35.9909 27.5759 36.8574 27.3105C37.1906 27.1777 37.124 27.2441 37.124 27.5759C37.124 27.8413 37.0574 28.1067 36.9907 28.3722C36.9241 28.8367 36.8574 29.3012 36.7907 29.7657C36.5908 30.8938 36.4574 31.9555 36.2575 33.0173C35.8576 35.008 35.4577 37.0651 34.9911 39.0558C34.1247 42.8383 33.1248 46.9525 30.9253 50.2041C30.6587 50.6022 30.3921 51.0003 30.0589 51.3321C29.7256 51.6639 29.259 51.7966 29.1257 52.0621C28.8591 52.5929 29.1923 53.721 29.259 54.3183C29.5256 56.309 29.7923 58.3661 30.0589 60.3568C30.6587 64.6038 31.2586 68.7844 32.0584 73.0313C32.7916 77.0128 33.6581 80.9943 34.8578 84.9094C36.1242 88.9573 37.2573 93.0051 38.257 97.1193C39.3901 101.764 40.39 106.41 41.3897 111.055C41.923 113.443 42.3895 115.832 42.9227 118.221C43.1893 119.416 43.456 120.61 43.6559 121.738C43.7226 122.203 43.7892 122.667 43.9225 123.132C44.1224 123.729 44.589 124.326 44.9222 124.923C45.0556 125.123 45.3889 125.056 45.3889 124.791C45.5888 118.288 45.922 111.718 46.2553 105.215C46.3219 103.755 46.6553 102.096 46.3886 100.703C46.0554 99.1765 45.7887 97.7166 45.5221 96.1903C44.9223 93.0051 44.389 89.7536 43.9225 86.502C42.9893 80.0653 42.2562 73.6285 42.0563 67.1254C41.923 64.0066 41.9229 60.8878 42.2562 57.7689C42.3228 56.9063 42.3895 56.0436 42.6561 55.2473C42.7894 54.7164 42.9227 54.6501 43.3227 55.2473C43.5226 55.5791 43.6559 55.9109 43.8558 56.1763C44.589 57.6362 45.0556 59.1624 45.4555 60.6886C47.2551 67.6563 47.5883 75.0884 47.5883 82.2551C47.5883 82.5869 48.0549 82.5869 48.1216 82.2551C48.7215 75.6856 49.4547 69.1162 50.3211 62.613C51.1876 56.1099 52.1207 49.6068 53.3871 43.2365C53.3871 43.1037 53.3871 42.971 53.1871 42.9047C51.5875 42.4402 50.1878 41.4447 49.188 40.1176C48.6548 39.454 48.2549 38.6577 47.9216 37.8614C47.7883 37.4633 47.655 37.0651 47.5883 36.667C47.455 35.937 47.8549 35.6052 48.5881 35.7379C48.7214 35.7379 48.9214 35.7379 48.9214 35.4725C48.7881 34.1453 48.6548 32.8182 48.6548 31.4246C48.6548 30.7611 48.6548 30.0975 48.7215 29.4339C48.7215 29.1685 48.7215 28.6376 48.9881 28.5049C49.2547 28.3721 49.5213 28.8367 49.6546 29.0358C49.7879 29.1685 50.0545 29.0357 50.0545 28.8367C50.0545 27.7086 50.1211 26.5805 50.1878 25.4524C50.1878 24.9215 50.1878 24.3906 50.3211 23.8598C50.3211 23.7271 50.3211 23.1299 50.4544 22.9972V22.8644C50.721 22.9308 50.921 23.0635 51.0543 23.1962C51.1876 23.3289 51.4542 23.1962 51.4542 22.9972C51.4542 21.5373 51.4542 20.0774 51.5875 18.6175C51.5875 18.2194 52.054 14.0388 52.5206 14.3043C52.7206 14.3706 52.8539 14.3042 52.9205 14.1051C53.1205 12.3135 53.3871 10.4555 53.7204 8.6638C53.8537 7.8675 54.0536 7.13756 54.2535 6.34126C54.3868 5.94311 54.4536 5.54493 54.6535 5.14678C54.6535 4.74863 54.9201 4.54955 55.2533 4.4832C55.2533 4.61591 55.3867 4.81495 55.4533 4.94767C55.52 5.14675 55.8532 5.2131 55.9198 4.94767C56.1865 3.88594 56.5864 2.82422 57.2529 1.89521C57.4528 1.62977 57.9861 0.833522 58.386 0.700806C59.0525 0.435373 59.2525 1.62979 59.3192 2.16066C59.5191 3.22239 59.5857 4.28415 59.5857 5.34589C59.5857 5.94311 59.5857 6.60665 59.5857 7.20387C59.5857 7.66838 59.719 8.59743 59.5191 9.06193C59.5191 9.19465 59.5191 9.26103 59.5191 9.32738C59.719 9.52646 59.7191 10.2563 59.7857 10.5881C59.8524 11.119 59.919 11.6499 59.9857 12.1807C59.9857 13.1098 59.9857 14.0388 59.9857 14.9678C59.9857 16.8922 59.7857 18.8166 59.5191 20.6746C59.5191 20.8074 59.6524 20.8737 59.7857 20.9401C60.1856 20.9401 59.5191 25.187 59.4524 25.6515C59.2525 27.1114 58.9193 28.5049 58.3194 29.832C58.2527 30.0311 58.3193 30.2302 58.5193 30.2302C58.9859 30.2302 58.0528 34.4108 57.9861 34.8753C57.9861 35.0744 58.1194 35.2735 58.3194 35.2071C58.586 35.1408 59.7857 34.8089 59.8523 35.0743C59.8523 35.2734 59.3191 36.1361 59.1858 36.2688C58.7193 37.0651 58.1861 37.9278 57.6529 38.7241C56.7197 40.1176 55.7199 41.6439 54.1869 42.5065C53.5204 42.9047 53.5871 42.772 53.3871 43.5019C53.1872 44.3646 53.0538 45.2271 52.8539 46.0898C52.5206 48.0806 52.1873 50.005 51.8541 51.9957C50.5877 59.8923 49.5879 67.8554 48.7215 75.8184C48.2549 80.3971 47.7883 85.0422 47.4551 89.6209C47.4551 89.8863 47.8549 89.9527 47.9216 89.6209C49.7212 81.7906 52.5873 74.2258 56.1865 67.0591C57.9194 63.6085 59.8523 60.2905 61.9185 57.0389C62.4518 56.2426 62.985 55.4463 63.5182 54.65C63.6515 54.5173 64.0514 53.721 64.1847 53.721C64.518 53.721 64.1847 54.9155 64.1181 55.1146C63.7182 57.039 63.1849 58.897 62.5851 60.7551C61.3187 64.5375 59.4525 67.9217 57.6529 71.4387C55.8533 74.9557 54.1203 78.8709 52.454 82.6533C50.7877 86.4357 49.2547 90.019 47.6551 93.6688C47.4551 94.1333 47.1885 94.5978 47.0552 95.0623C46.9219 95.4604 46.9218 95.8586 46.9218 96.2567C46.9218 97.2521 46.7886 98.2474 46.7219 99.1764C46.5886 101.234 46.4553 103.291 46.322 105.414C46.0554 110.126 45.7888 114.903 45.6555 119.615C45.6555 120.743 45.5888 121.937 45.5221 123.065C45.5221 123.928 45.2556 125.123 45.6555 125.919C46.6553 127.91 47.655 129.967 48.5215 132.024C48.5881 132.223 48.8548 132.157 48.9881 132.024C49.2547 131.559 49.2547 130.896 49.388 130.365C49.5879 129.569 49.7212 128.839 49.9212 128.042C50.2544 126.582 50.5877 125.189 50.9877 123.795C51.7208 120.876 52.4539 118.022 53.2538 115.169C54.8534 109.396 56.5864 103.689 58.4527 98.0484C62.1185 86.7675 66.1843 75.6857 70.65 64.7366C73.2495 58.3662 75.9822 51.9957 78.9816 45.758C78.9816 45.6917 78.9816 45.559 78.9816 45.4926C78.7816 45.1609 78.7149 44.63 78.6483 44.2318C78.515 43.6346 78.3816 42.971 78.2483 42.3738C78.0484 41.1793 77.9151 40.0513 77.8484 38.8568C77.8484 37.7287 77.8484 36.6006 78.115 35.5389C78.2483 35.008 78.3816 34.2781 78.7816 33.8799C79.3148 33.3491 79.7814 34.4771 79.9813 34.8089C80.1146 35.008 80.3812 34.9416 80.4479 34.8089C80.8478 33.5481 81.381 32.2873 82.0475 31.1592C82.3808 30.6283 83.8472 28.4386 84.647 28.9694C84.9802 29.2349 84.7803 30.562 84.7803 30.9602C84.7803 31.6901 84.6469 32.42 84.5136 33.0836C84.247 34.4108 83.9138 35.7379 83.4472 37.0651C83.4472 37.2642 83.6471 37.4633 83.8471 37.3305C84.3803 36.9324 84.9802 36.5342 85.58 36.1361C85.9133 35.937 86.1799 35.8043 86.5132 35.6716C86.7798 35.5389 86.8465 35.4062 86.9798 35.6716C87.0465 35.8707 86.9131 36.2688 86.8465 36.4679C86.3799 37.9941 85.2468 39.3877 84.247 40.5821C83.2472 41.7766 82.1808 42.8383 81.0478 43.8337C80.5145 44.3646 79.7814 44.829 79.3148 45.3599C78.9816 45.758 78.7815 46.488 78.5149 46.9525C75.7822 52.8584 73.1828 58.8306 70.7833 64.8029C69.3836 68.2535 67.9839 71.7041 66.7175 75.1548C66.6509 75.3538 66.9841 75.5529 67.1174 75.4202C70.3167 71.7042 73.7827 68.1208 77.4485 64.8692C81.1144 61.6177 85.1135 58.3662 89.5792 56.11C91.912 54.9819 94.4448 53.9865 97.1109 54.1192C97.9774 54.1192 97.7774 54.2519 97.2442 54.7164C96.7776 55.1809 96.3111 55.6454 95.7779 56.0436C94.7781 56.9726 93.8449 57.8353 92.8451 58.7643C88.9793 62.2813 84.9802 65.6655 80.8478 68.8507C78.6482 70.576 76.3821 72.235 73.9826 73.6949C71.7165 75.0884 69.117 76.8138 66.3843 76.681C66.251 76.681 66.1843 76.7474 66.1177 76.8801C61.0521 90.3508 56.5198 104.021 52.7872 117.956C51.7208 121.937 50.721 125.919 49.7879 129.9C49.7879 130.166 50.1211 130.365 50.2544 130.099C52.254 126.516 54.4535 122.999 56.853 119.681C57.6528 118.553 58.8526 117.359 59.1192 116.031C59.5857 113.974 60.119 111.984 60.7188 109.993C61.9186 106.011 63.2516 102.03 65.3179 98.4465C67.3841 94.8632 69.9168 91.7444 71.7831 88.0283C71.983 87.6301 72.1164 87.1656 72.3163 86.8338C72.5163 86.5684 72.5163 86.3693 72.6496 86.7011C72.7829 86.9666 72.6496 87.4974 72.6496 87.7628C72.5829 88.8909 72.4496 90.019 72.2496 91.1471C71.8497 93.4696 71.2499 95.7259 70.5167 97.982C70.3834 98.2475 70.7833 98.3801 70.9833 98.1811C75.3157 92.607 80.5812 87.8292 86.4466 83.8477C87.8463 82.9187 89.246 82.056 90.7123 81.1934C92.1787 80.3307 93.7116 79.3353 95.2446 78.8045C95.2446 78.8045 95.6446 78.6054 95.7112 78.8045C95.6446 78.6718 95.5112 78.9372 95.5112 78.9372C95.2446 79.2689 94.9114 79.6007 94.6448 79.9325C94.0449 80.5961 93.445 81.2597 92.9118 81.9233C91.712 83.3168 90.4457 84.644 89.2459 85.9712C86.5798 88.891 83.8471 91.7443 80.8478 94.3987C80.6478 94.5978 80.8478 94.9295 81.1144 94.7968C85.1802 92.9388 89.2459 91.2134 93.5117 89.8863C95.5112 89.2891 97.5775 88.6919 99.7104 88.3601C101.843 88.0283 104.243 87.8292 106.176 88.8909C106.442 89.0236 106.709 88.6255 106.442 88.4264L105.909 88.6255Z" fill="#231F20"/>
<path d="M80.4492 35.8706C80.8491 34.5435 81.3156 33.2826 81.9155 32.0882C82.4487 31.0264 83.1152 29.9647 84.115 29.3675L83.7151 29.1684C83.9817 31.1591 83.5152 33.349 82.982 35.2734C82.8487 35.7379 82.7153 36.2024 82.582 36.6669C82.4487 37.1978 82.3154 37.5959 81.9822 37.9941C81.3157 38.6577 80.7158 39.3212 80.1159 40.1175L80.5824 40.2503C80.6491 39.454 80.7158 38.724 80.7158 37.9277C80.7158 37.5959 80.7158 37.1978 80.6491 36.866C80.6491 36.7333 80.6491 36.5342 80.5824 36.4015C80.5824 36.4015 80.4492 35.8706 80.4492 35.937C80.6491 35.6715 80.1826 35.4061 79.9826 35.6715C79.8493 35.8042 79.9826 36.1361 79.9826 36.2688C80.0493 36.7333 80.1159 37.1978 80.1159 37.6623C80.1159 38.5249 80.1159 39.3876 79.9826 40.1839C79.9826 40.4494 80.3159 40.5157 80.4492 40.3166C80.7824 39.8521 81.1157 39.3876 81.5156 38.9894C81.7822 38.6577 82.2487 38.3922 82.5154 38.0604C82.782 37.7286 82.8487 37.1977 82.982 36.7996C83.1153 36.2687 83.3152 35.8043 83.4485 35.2734C83.9817 33.349 84.4483 31.1592 84.1817 29.102C84.1817 28.903 83.9817 28.7703 83.7818 28.903C82.7153 29.5002 81.9822 30.562 81.4489 31.6237C80.7824 32.9509 80.2492 34.278 79.8493 35.6715C79.7826 36.0033 80.2492 36.136 80.3159 35.8042L80.4492 35.8706Z" fill="#231F20"/>
<path d="M80.3147 41.8429C81.5811 39.3213 83.8473 37.2642 86.3801 36.0697L85.9802 35.8707C85.7135 37.7951 84.2472 39.454 83.0474 40.8476C81.8477 42.2411 80.448 43.6346 78.9817 44.8954L79.3816 45.1608C79.7148 44.0991 80.0481 42.971 80.248 41.8429C80.248 41.5111 79.8481 41.3784 79.7815 41.7102C79.5815 42.8383 79.2482 43.9 78.915 45.0281C78.8483 45.2935 79.1816 45.4262 79.3149 45.2935C80.8479 43.9664 82.3809 42.5065 83.714 40.9139C84.9137 39.5204 86.1801 37.8614 86.4467 35.937C86.4467 35.738 86.2467 35.6716 86.0468 35.7379C83.4474 36.9987 81.1145 39.1222 79.7815 41.7102C79.6482 41.9756 80.0481 42.2411 80.248 41.9756L80.3147 41.8429Z" fill="#231F20"/>
<path d="M78.383 41.0466C78.1164 38.7904 77.9164 36.2688 79.0495 34.2117H78.5829C79.5827 35.5389 79.716 37.3969 79.5827 39.0558C79.5827 39.9848 79.4494 40.9803 79.1162 41.8429C78.8495 42.5729 78.583 43.3027 78.383 44.099H78.8495C78.6496 43.1037 78.4497 42.042 78.3164 40.9802C78.3164 40.6484 77.7831 40.6484 77.7831 40.9802C77.9164 42.042 78.1164 43.1037 78.3164 44.2318C78.3164 44.4309 78.7829 44.4972 78.7829 44.2318C78.8495 43.7673 78.9829 43.3028 79.1162 42.8383C79.2495 42.3738 79.516 41.9756 79.5827 41.4447C79.716 40.5821 79.8493 39.7194 79.9159 38.7904C80.0493 37.1314 79.916 35.2735 78.8495 33.8799C78.7162 33.7472 78.5163 33.6809 78.383 33.8799C77.2499 36.0698 77.3832 38.5913 77.6498 40.9802C77.6498 41.312 78.183 41.312 78.183 40.9802L78.383 41.0466Z" fill="#231F20"/>
<path d="M73.3827 69.2488C76.7153 65.9309 80.1812 62.6794 83.9804 59.9587C87.7796 57.238 92.1119 54.5173 96.7776 54.5837L96.5776 54.1855C92.0452 58.4988 87.313 62.6794 82.3807 66.6609C79.9146 68.6516 77.4485 70.576 74.7824 72.3013C73.516 73.164 72.1829 73.9603 70.8499 74.6903C69.3835 75.4866 67.7839 76.2829 66.1176 76.4156L66.3176 76.8137C68.5171 74.1594 70.9166 71.6378 73.3161 69.1825C73.516 68.9834 73.1828 68.5853 72.9828 68.8507C70.5167 71.306 68.1839 73.8276 65.9843 76.4819C65.851 76.6146 65.9843 76.9464 66.1842 76.88C69.2502 76.6146 72.1163 74.6239 74.5824 73.0313C77.1818 71.3724 79.648 69.5143 82.0475 67.5899C87.1797 63.4757 92.1786 59.0961 96.9109 54.5173C97.0442 54.3846 96.9109 54.1192 96.7109 54.1192C92.0453 54.1192 87.5796 56.7735 83.9137 59.3614C79.9812 62.1485 76.3821 65.4664 72.9828 68.8507C72.7828 69.0498 73.1161 69.4479 73.3161 69.1825L73.3827 69.2488Z" fill="#231F20"/>
<path d="M58.8527 34.8089C58.1195 36.2687 57.2531 37.596 56.32 38.9231C55.5201 40.1176 54.587 41.312 53.3873 42.1083L53.7872 42.3737C53.9205 41.6438 53.9871 40.7811 53.7872 40.0512V40.2503C54.3204 39.1222 55.0535 38.0604 55.8534 37.0651C56.6532 36.0697 57.7863 35.207 59.1193 35.0743C59.4526 35.0743 59.4526 34.5435 59.1193 34.5435C57.3864 34.6762 55.9866 36.0033 54.9202 37.3305C54.387 37.9941 53.9204 38.724 53.5205 39.4539C53.4539 39.5867 53.2539 39.8521 53.2539 40.0512C53.2539 40.1839 53.3206 40.383 53.3873 40.5821C53.4539 41.113 53.3873 41.7102 53.3873 42.241C53.3873 42.4401 53.5205 42.6392 53.7872 42.5065C55.0535 41.7102 55.9867 40.5157 56.7865 39.3213C57.7863 37.9277 58.6528 36.4679 59.4526 35.008C59.5859 34.7425 59.186 34.4771 58.9861 34.7425L58.8527 34.8089Z" fill="#231F20"/>
<path d="M57.5861 31.292C57.5194 31.9555 57.3861 32.6855 57.2528 33.3491C57.2528 33.6808 57.1196 34.079 57.0529 34.4108C57.0529 34.5435 57.0529 34.809 56.9196 34.9417C56.9196 35.008 56.7197 35.0743 56.653 35.1407C55.6532 35.7379 54.7867 36.6006 54.1202 37.596H54.5867C54.4534 37.2642 54.3868 36.866 54.2535 36.4679C54.2535 36.2688 54.1202 36.0698 54.0536 35.8707C53.9869 35.6716 53.9869 35.6052 54.0536 35.4061C54.3868 34.7426 54.7867 34.1454 55.1866 33.5482C55.9864 32.4201 56.9196 31.491 58.0527 30.7611L57.6528 30.562C57.6528 30.8275 57.6528 31.1592 57.6528 31.4246C57.6528 31.7564 58.1193 31.7564 58.186 31.4246C58.186 31.1592 58.186 30.8275 58.186 30.562C58.186 30.363 57.986 30.2302 57.7861 30.3629C56.653 31.1592 55.5199 32.2209 54.7201 33.4154C54.2535 34.079 53.8536 34.7425 53.5203 35.4725C53.3204 35.8043 53.5204 36.1361 53.7203 36.4679C53.8536 36.9324 53.9869 37.3969 54.1202 37.8615C54.1202 38.0605 54.4534 38.0605 54.5867 37.8615C54.9866 37.3306 55.4532 36.7997 55.9198 36.4015C56.1864 36.2024 56.453 36.0034 56.7197 35.8043C56.9196 35.6716 57.2529 35.6052 57.3862 35.4061C57.5195 35.2071 57.5194 34.809 57.5861 34.5435C57.6527 34.2117 57.7194 33.8135 57.7861 33.4817C57.9194 32.8182 58.0527 32.0882 58.1193 31.4246C58.1193 31.0929 57.6527 31.0929 57.5861 31.4246V31.292Z" fill="#231F20"/>
<path d="M58.5877 24.3906C58.3211 26.315 58.0545 28.2394 57.1214 29.9647C56.9881 30.2302 56.7215 30.3629 56.4549 30.562C56.055 30.8938 55.7217 31.1592 55.3885 31.5574C54.7219 32.2873 54.122 33.0836 53.5888 33.8799L54.0554 34.0126C54.1887 32.7518 54.1887 31.5573 54.1221 30.2965C54.1221 29.6993 54.0554 29.1685 53.9888 28.5712C53.9888 28.2394 53.9221 28.0403 54.0554 27.7085C54.1887 27.3767 54.3886 27.1113 54.5886 26.7795C55.7883 24.7888 57.2547 22.599 59.321 21.3382L58.921 21.139C58.8543 22.2008 58.721 23.2625 58.5877 24.3906C58.5877 24.7224 59.0543 24.8551 59.0543 24.5233C59.1876 23.3952 59.3209 22.2671 59.3876 21.139C59.3876 20.94 59.1877 20.8073 58.9877 20.94C56.9215 22.1345 55.4551 24.3243 54.1887 26.315C53.9221 26.7795 53.3889 27.3768 53.3223 27.9076C53.3223 28.1067 53.3222 28.4385 53.4555 28.6376C53.4555 29.0357 53.5888 29.4338 53.5888 29.832C53.7221 31.2255 53.5888 32.6191 53.5888 34.0126C53.5888 34.278 53.9221 34.3443 54.0554 34.1453C54.6553 33.2162 55.2552 32.3536 56.055 31.6237C56.3882 31.2919 56.7881 30.9601 57.188 30.6947C57.4546 30.4956 57.588 30.2302 57.7213 29.8984C58.5211 28.2394 58.7877 26.3813 59.0543 24.5233C59.0543 24.1915 58.5877 24.0588 58.5877 24.3906Z" fill="#231F20"/>
<path d="M58.92 16.494C58.92 17.1576 58.8534 17.8875 58.7867 18.5511C58.7867 18.8829 58.7868 19.2148 58.6534 19.6129C58.5201 20.0111 58.6534 20.5419 58.4535 20.8073C58.3202 21.0064 57.9203 21.1391 57.7203 21.3382C57.5203 21.5373 57.3204 21.67 57.1204 21.8027C56.6539 22.2008 56.2539 22.6653 55.854 23.1962L56.2539 23.329C56.0539 22.0681 55.7874 20.8073 55.4541 19.5465C55.3208 19.0156 54.9209 18.3521 54.9209 17.7548C54.9209 17.1576 55.2542 16.5604 55.4541 16.0295C56.3206 13.8397 57.7869 11.7826 59.1866 9.85819H58.7201C59.1866 11.9817 59.12 14.3042 58.9867 16.494C58.9867 16.8258 59.4532 16.8258 59.5199 16.494C59.6532 14.2378 59.7198 11.9153 59.2533 9.65916C59.2533 9.46009 58.92 9.46009 58.7867 9.65916C57.3204 11.5836 55.7873 13.707 54.9209 16.0295C54.7209 16.5604 54.3877 17.2903 54.3877 17.8875C54.3877 18.4184 54.7209 18.9493 54.9209 19.4801C55.3208 20.8073 55.5874 22.1345 55.854 23.4616C55.854 23.6607 56.1873 23.7271 56.2539 23.5944C56.7205 23.0635 57.1871 22.5326 57.7203 22.0681C57.9869 21.8027 58.3202 21.6036 58.6534 21.4045C58.7868 21.3382 58.9867 21.2718 59.0533 21.0728C59.1866 20.8737 59.12 20.4755 59.1866 20.2101C59.1866 19.8119 59.2533 19.4138 59.32 19.0157C59.3866 18.2194 59.4532 17.3567 59.5199 16.5604C59.5199 16.2286 59.0534 16.2286 58.9867 16.5604L58.92 16.494Z" fill="#231F20"/>
<path d="M57.4526 1.82882C57.7192 1.49703 57.9858 1.16522 58.2524 0.899786H57.8525C58.5856 2.49238 58.5856 4.54948 58.5856 6.27479C58.5856 6.67294 58.5856 7.13747 58.5856 7.53561C58.5856 7.93376 58.5857 8.53099 58.4524 8.86278C58.319 9.19457 57.9192 9.52636 57.7192 9.85816C57.4526 10.2563 57.1859 10.5881 56.9193 10.9863L57.3859 11.119C57.186 9.52638 56.786 7.9338 56.2528 6.40756C56.0528 5.87669 56.0529 5.54485 56.1195 4.94763C56.1862 4.61583 56.2528 4.2177 56.3862 3.88591C56.6528 3.08961 56.986 2.42606 57.4526 1.76248C57.6525 1.49704 57.186 1.23159 56.986 1.49703C56.5195 2.16061 56.1861 2.82418 55.9195 3.55412C55.7196 4.15134 55.3864 5.08039 55.453 5.74397C55.453 6.14212 55.7196 6.54022 55.8529 6.93837C55.9862 7.40288 56.1195 7.80103 56.2528 8.26554C56.5194 9.19456 56.7194 10.1236 56.786 11.0526C56.786 11.3181 57.1193 11.3844 57.2526 11.1853C57.5192 10.7208 57.8525 10.3226 58.1857 9.9245C58.3857 9.65906 58.7856 9.26091 58.9189 8.92912C59.0522 8.53097 58.9856 7.93378 58.9856 7.46927C58.9856 7.00476 58.9856 6.47393 58.9856 6.00942C58.9856 4.15139 58.9856 2.16061 58.1857 0.501652C58.1857 0.368936 57.9191 0.368936 57.7858 0.501652C57.4526 0.833444 57.1859 1.16522 56.9193 1.56337C56.7194 1.8288 57.186 2.09425 57.3859 1.82882H57.4526Z" fill="#231F20"/>
<path d="M53.0545 14.3706C53.2545 12.7116 53.5211 10.9863 53.7877 9.32738C54.0543 7.80114 54.3209 6.27486 54.8541 4.81498H54.3875C55.254 6.93845 55.9871 9.12829 56.2538 11.3845C56.2538 11.6499 56.2538 11.7826 56.2538 12.0481C56.1205 12.2471 55.9872 12.5126 55.8539 12.7116C55.5873 13.1098 55.3873 13.508 55.1207 13.9725C54.6541 14.8351 54.2543 15.7641 53.9877 16.7595H54.4542C54.1209 15.8305 53.6544 15.0342 53.1211 14.3043V14.5696C53.2544 14.2378 52.8546 13.9724 52.6546 14.2378C52.4547 14.636 52.9212 14.9678 53.1211 15.2996C53.4544 15.8305 53.721 16.3614 53.9877 16.9586C54.0543 17.1577 54.3875 17.0913 54.4542 16.9586C54.7874 15.8305 55.254 14.7687 55.8539 13.7734C56.0538 13.3752 56.3204 12.977 56.587 12.5789C56.8536 12.1144 56.8537 11.9817 56.787 11.3845C56.5871 9.12829 55.7872 6.87209 54.9207 4.81498C54.8541 4.61591 54.5208 4.54955 54.4542 4.81498C53.8543 6.34122 53.5877 7.93381 53.3211 9.5264C53.0545 11.119 52.7878 12.778 52.5879 14.4369C52.5879 14.7687 53.0545 14.7687 53.1211 14.4369L53.0545 14.3706Z" fill="#231F20"/>
<path d="M51.7869 19.3474C51.8535 17.7548 51.9202 16.0959 52.4534 14.636L52.1201 14.835C52.3201 14.835 52.52 15.3659 52.5867 15.4986C52.72 15.7641 52.8533 16.0295 52.9866 16.295C53.2532 16.7595 53.4532 17.2903 53.6532 17.8212C53.9198 18.6175 54.1863 19.3474 54.453 20.2101C54.5863 20.8073 54.7195 21.3382 54.8529 21.9354C54.9862 22.5327 55.3194 23.4616 55.0528 24.0589C54.9862 24.3243 54.6529 24.5897 54.5196 24.7888C54.3196 25.0542 54.1864 25.2533 54.0531 25.5187C53.7198 26.0496 53.4532 26.5141 53.1199 27.045H53.5864C53.2532 25.9169 52.7867 24.7224 51.9869 23.7934C51.7869 23.528 51.5869 23.3289 51.5869 22.9971C51.5869 22.6654 51.5869 22.2008 51.5869 21.8027C51.5869 21.0064 51.5869 20.2101 51.7202 19.4801C51.7202 19.1483 51.2536 19.1483 51.187 19.4801C51.187 20.2764 51.1204 21.0727 51.0537 21.8027C51.0537 22.3335 50.8538 23.1299 51.0537 23.5944C51.187 23.8598 51.5203 24.1252 51.6536 24.3243C51.8536 24.5897 52.0535 24.8551 52.1868 25.1869C52.52 25.8505 52.7867 26.5142 52.9866 27.2441C52.9866 27.4432 53.3199 27.5095 53.4532 27.2441C53.7864 26.6469 54.1197 26.0496 54.5196 25.5187C54.7195 25.1869 54.9195 24.9216 55.1195 24.5898C55.2528 24.3907 55.5194 24.1916 55.586 23.9262C55.6527 23.6607 55.586 23.3289 55.4527 23.1298C55.4527 22.798 55.3194 22.3999 55.2527 22.0681C55.1194 21.3382 54.9195 20.6082 54.7196 19.8783C54.453 18.9492 54.1863 18.0866 53.7864 17.2239C53.5198 16.6267 53.2532 16.0958 52.9866 15.565C52.7867 15.1668 52.5201 14.5033 52.0535 14.3706C51.9202 14.3706 51.7869 14.3705 51.7202 14.5696C51.187 16.0958 51.1204 17.8212 51.0537 19.4138C51.0537 19.7456 51.5202 19.7456 51.5869 19.4138L51.7869 19.3474Z" fill="#231F20"/>
<path d="M50.3872 26.5141C50.3872 25.3197 50.4539 24.1253 50.7205 22.9972L50.3206 23.1298C51.7869 24.3907 52.4534 26.2487 52.7867 28.0404C53.1866 30.0975 53.1199 32.2209 52.92 34.3444L53.3866 34.2117C52.7867 32.8846 52.0535 31.6237 51.187 30.4956C50.7871 29.9647 50.2539 29.5002 50.2539 28.8366C50.2539 28.1067 50.2539 27.3105 50.3206 26.5805C50.3206 26.2487 49.854 26.2487 49.7873 26.5805C49.7873 27.3768 49.7207 28.1731 49.7207 28.9694C49.7207 29.1685 49.7207 29.3676 49.7207 29.5666C49.854 29.9648 50.2539 30.2966 50.5205 30.6284C51.387 31.8892 52.1868 33.15 52.7867 34.5435C52.92 34.809 53.2532 34.6098 53.2532 34.4108C53.4532 32.2209 53.4532 30.0312 53.0533 27.9077C52.72 26.0497 51.9868 24.1252 50.5205 22.7981C50.3872 22.6653 50.1206 22.7317 50.1206 22.9308C49.854 24.1253 49.7874 25.3861 49.7207 26.5805C49.7207 26.9123 50.1872 26.9123 50.2539 26.5805L50.3872 26.5141Z" fill="#231F20"/>
<path d="M48.656 28.7703C49.9891 30.2966 51.1888 32.0219 52.0553 33.8135C52.5218 34.7425 52.8551 35.6716 53.1883 36.6006C53.255 36.7997 53.3217 37.0651 53.3883 37.2642C53.455 37.4633 53.5882 37.8614 53.5882 38.0605C53.5882 38.525 53.055 38.9895 52.8551 39.3876H53.3217C52.2552 37.6623 50.9888 35.937 49.0559 35.0743L49.2558 35.3398C48.9892 33.15 48.7226 30.7611 49.1892 28.5713C49.1892 28.2395 48.7893 28.1067 48.7227 28.4385C48.2561 30.6947 48.5227 33.0836 48.7893 35.3398C48.7893 35.4725 48.856 35.5389 48.9893 35.6052C50.7889 36.3352 51.9886 38.0605 52.9884 39.6531C53.1217 39.7858 53.3216 39.8522 53.455 39.6531C53.5883 39.3877 53.7215 39.1222 53.9215 38.9232C54.0548 38.7241 54.2548 38.525 54.3215 38.3259C54.4548 37.9278 54.1215 37.3306 54.0548 36.9324C53.7882 35.8707 53.3883 34.8753 52.9217 33.8799C51.9886 31.8892 50.7222 30.0311 49.2558 28.3722C49.0559 28.1067 48.7226 28.5049 48.9226 28.704L48.656 28.7703Z" fill="#231F20"/>
<path d="M52.8542 42.3074C50.3881 41.3784 48.5218 39.3213 47.922 36.7333C47.922 36.4679 47.7887 36.2024 47.7887 36.0034C47.7887 35.937 47.7887 35.8043 47.7887 35.7379H47.9887C48.5219 35.7379 48.9885 36.0034 49.3884 36.2688C50.3882 36.9324 51.1213 37.8614 51.7878 38.8568C51.9878 39.1222 52.1878 39.3876 52.3211 39.7194C52.4544 39.9185 52.5877 40.1839 52.721 40.383C52.9209 41.1129 52.8543 41.8429 52.721 42.5729L53.0542 42.3738H52.9876C52.6543 42.241 52.521 42.7056 52.8542 42.8383H52.9209C53.0542 42.9047 53.1875 42.8383 53.2541 42.7055C53.3874 41.9756 53.4541 41.1793 53.2541 40.383C53.1208 39.8521 52.7876 39.3877 52.4544 38.9232C51.7212 37.7951 50.8547 36.667 49.7216 35.8707C49.1884 35.5389 47.1222 34.5435 47.3222 35.8707C47.5888 37.3306 47.9886 38.6577 48.9218 39.8522C49.9215 41.1794 51.3212 42.1747 52.8542 42.7719C53.1209 42.9046 53.3209 42.3738 52.9876 42.3074H52.8542Z" fill="#231F20"/>
<path d="M54.5214 71.3724C57.1208 65.6656 60.1869 60.1578 63.7861 54.9155L63.3195 54.7164C62.7863 57.3043 62.0531 59.8923 61.12 62.3476C60.1869 64.8028 58.9871 67.1254 57.7208 69.448C55.188 74.2258 52.9884 79.2689 50.8555 84.2458C49.6558 87.0329 48.3894 89.8863 47.1897 92.7397L47.6563 92.9388C48.9893 85.5067 51.3888 78.2736 54.5214 71.3724C54.6547 71.1069 54.2548 70.8415 54.0549 71.1069C50.9222 78.0082 48.4561 85.2412 47.123 92.7397C47.123 93.0051 47.4563 93.2043 47.5896 92.9388C49.7891 87.8292 51.922 82.7196 54.2548 77.7428C55.3879 75.2875 56.521 72.8323 57.7874 70.377C58.9205 68.1208 60.2535 65.9973 61.1866 63.6084C62.3197 60.755 63.1862 57.8353 63.7861 54.8491C63.7861 54.5837 63.5195 54.451 63.3195 54.65C59.787 59.826 56.721 65.4001 54.0549 71.1069C53.9216 71.3724 54.3215 71.6378 54.5214 71.3724Z" fill="#231F20"/>
<path d="M44.7236 89.2227C43.8572 83.4495 43.0573 77.7427 42.6574 71.9032C42.2575 66.0636 41.9909 60.5559 42.9907 55.0482H42.5241C43.8571 57.4371 44.5237 60.2242 45.0569 62.8121C45.6568 65.6655 45.99 68.5189 46.1899 71.4387C46.5899 77.2119 46.5899 83.0514 46.3899 88.8245C46.2566 92.1425 46.0567 95.394 45.79 98.7119H46.2566C45.6567 95.5267 45.1236 92.4079 44.657 89.2891C44.657 88.9573 44.1237 89.09 44.1904 89.4218C44.6569 92.5406 45.1902 95.6594 45.79 98.8446C45.79 99.1101 46.2566 99.0437 46.2566 98.8446C46.6565 92.806 46.9898 86.7675 46.9898 80.7289C46.9898 75.0221 46.7232 69.2488 45.6568 63.6084C45.1236 60.6886 44.3903 57.6361 42.924 55.0482C42.7907 54.8491 42.5241 54.9154 42.4574 55.0482C41.4577 60.6223 41.7243 66.4618 42.1242 72.0359C42.5241 77.61 43.3239 83.715 44.257 89.4881C44.257 89.8199 44.7903 89.6872 44.7236 89.3554V89.2227Z" fill="#231F20"/>
<path d="M30.1917 44.4973C30.6582 41.3784 31.2581 38.3259 32.1246 35.3398C32.9911 32.6191 34.0575 29.1685 36.5236 27.4432L36.1237 27.1777C35.5239 31.491 34.724 35.8043 33.7243 40.0512C33.2577 42.042 32.6578 44.0327 31.9246 45.9571C31.1914 47.8815 30.4583 49.9386 28.9253 51.2658L29.3252 51.4649C29.5252 49.1424 29.7918 46.8198 30.125 44.5636C30.125 44.2318 29.6585 44.0991 29.6585 44.4309C29.3252 46.7534 28.9919 49.1424 28.792 51.5313C28.792 51.7303 29.0586 51.863 29.1919 51.7303C30.5249 50.5358 31.2581 48.8106 31.9246 47.1516C32.7911 45.0945 33.391 42.971 33.9909 40.8476C35.124 36.4016 35.9237 31.8892 36.5903 27.3768C36.5903 27.1777 36.457 26.9787 36.1904 27.1114C33.8575 28.7703 32.7245 31.8891 31.858 34.4771C30.7915 37.7287 30.1251 41.113 29.6585 44.4973C29.6585 44.8291 30.125 44.9618 30.125 44.63L30.1917 44.4973Z" fill="#231F20"/>
<path d="M28.8587 20.1437C29.1253 19.6792 29.4585 19.2147 29.8585 18.8166L29.4586 18.6175C29.4586 20.3429 29.2586 22.0681 28.8587 23.7271C28.5254 25.187 27.9255 26.9786 26.5258 27.7749L26.9257 27.974C27.1924 25.3197 27.5256 22.5326 28.792 20.1437C28.9253 19.8783 28.5255 19.6129 28.3255 19.8783C27.0591 22.3335 26.6592 25.2534 26.3926 27.974C26.3926 28.1731 26.5925 28.3058 26.7925 28.1731C28.1922 27.3104 28.8587 25.6515 29.2586 24.1252C29.7251 22.3336 29.9251 20.4756 29.9251 18.6175C29.9251 18.4185 29.7252 18.2857 29.5252 18.4184C28.992 18.8166 28.6588 19.3474 28.3255 19.8783C28.1922 20.1437 28.5921 20.4092 28.792 20.1437H28.8587Z" fill="#231F20"/>
<path d="M26.3273 31.5574C23.328 28.1067 21.0618 23.2626 21.3284 18.6175L20.9285 18.8165C24.8609 21.7363 26.0607 27.045 25.8607 31.69C25.8607 32.0218 26.3273 32.0218 26.394 31.69C26.5273 26.8459 25.3275 21.4045 21.1951 18.352C21.0618 18.2193 20.7952 18.352 20.7952 18.5511C20.5286 23.3289 22.8614 28.3057 25.9274 31.8227C26.1273 32.0882 26.4606 31.69 26.2606 31.4909L26.3273 31.5574Z" fill="#231F20"/>
<path d="M25.5279 23.4616C25.5946 23.3289 25.5279 23.0635 25.5279 22.9308C25.5279 22.5327 25.5279 22.1345 25.5279 21.7363C25.5279 21.0064 25.6612 20.2764 25.7279 19.5465C25.8612 18.0866 26.0611 16.6268 26.5277 15.2996H26.0612C26.661 17.1577 26.8609 19.082 26.8609 20.9401C26.8609 21.3382 26.8609 21.8027 26.8609 22.1345C26.7943 22.5326 26.5943 22.9972 26.5277 23.3953C26.3277 24.3243 26.1278 25.2534 25.9945 26.2487H26.4611C26.1944 25.187 25.8612 24.1916 25.4613 23.2626C25.328 22.9972 24.9281 23.2626 24.9947 23.528C25.3947 24.457 25.7278 25.4524 25.9278 26.3814C25.9278 26.5805 26.3944 26.6469 26.3944 26.3814C26.5277 25.386 26.7276 24.3243 26.9276 23.329C27.0609 22.9308 27.1942 22.5326 27.2608 22.0681C27.3275 21.6036 27.2608 21.2055 27.2608 20.8073C27.2608 18.8829 27.0609 16.9585 26.4611 15.1005C26.3944 14.8351 26.0612 14.9014 25.9945 15.1005C25.528 16.3613 25.3946 17.6885 25.2613 18.9493C25.1946 19.6793 25.128 20.3428 25.0614 21.0728C25.0614 21.4046 25.0614 21.8027 25.0614 22.1345C25.0614 22.3336 25.0614 22.4663 25.0614 22.6654C25.0614 22.7981 25.0614 23.1298 25.0614 23.1962C24.9281 23.4616 25.328 23.7271 25.5279 23.4616Z" fill="#231F20"/>
<path d="M25.6605 68.5853C24.5941 67.059 23.6609 65.5992 22.9277 63.8739C22.1945 62.0822 21.528 60.2242 20.9281 58.4325C19.6617 54.6501 18.5287 50.8676 17.5289 47.0188L17.0624 47.2179C20.4616 52.5266 23.5276 57.9679 26.2603 63.6748C28.993 69.3152 31.3259 75.0884 32.8589 81.1934L33.3255 80.9943C30.8594 76.8138 28.3265 72.6331 25.5938 68.5853C25.3938 68.3198 24.9939 68.5853 25.1272 68.8507C27.86 72.8986 30.3261 77.0128 32.8589 81.2597C32.9922 81.5251 33.3921 81.3261 33.3255 81.0607C31.7925 75.0221 29.4596 69.3152 26.7935 63.6748C24.0608 57.9016 20.9282 52.3275 17.4622 46.9525C17.3289 46.7534 16.9291 46.8862 16.9957 47.1516C18.0621 51.0667 19.1952 54.9818 20.5282 58.897C21.1281 60.6887 21.728 62.414 22.4612 64.1393C23.1943 65.8646 24.1274 67.3245 25.1939 68.8507C25.3938 69.1162 25.7938 68.8507 25.6605 68.5853Z" fill="#231F20"/>
<path d="M18.1951 86.9001C16.9287 82.3878 16.0622 77.8091 15.7956 73.164L15.3291 73.2967C18.3284 79.2689 21.1278 85.3739 23.7273 91.5452C24.927 94.5313 26.0601 97.5175 27.1265 100.504C28.0596 103.291 29.1261 106.011 30.7257 108.467L31.1256 108.201C24.5937 102.76 20.5279 94.9958 18.1951 86.9001C18.1284 86.5683 17.5953 86.7011 17.7286 87.0329C20.0614 95.1286 24.1938 103.025 30.7924 108.533C30.9923 108.666 31.3256 108.533 31.1923 108.268C29.4593 105.68 28.4596 102.76 27.3931 99.84C26.3267 96.9202 25.1936 93.8014 23.9939 90.8153C21.4611 84.7767 18.7283 78.8708 15.7956 73.0313C15.6623 72.8322 15.3291 72.8986 15.3291 73.164C15.5957 77.8754 16.4622 82.5205 17.7286 87.0329C17.7952 87.3647 18.2617 87.2319 18.1951 86.9001Z" fill="#231F20"/>
<path d="M26.1931 109.727C21.7941 108.732 17.5284 107.007 13.4626 105.149C9.39679 103.291 5.331 101.167 1.53183 98.7783V99.2429C2.93152 98.9774 4.46452 99.3756 5.86421 99.7073C7.19726 100.039 8.46368 100.437 9.73007 100.835C12.3295 101.698 14.8623 102.693 17.3951 103.755C22.5273 105.879 27.5928 108.268 32.5917 110.723L32.725 110.258C30.5255 110.524 28.326 110.258 26.1265 109.727C25.7932 109.727 25.6599 110.126 25.9932 110.192C28.1927 110.656 30.4589 110.988 32.725 110.723C32.925 110.723 33.1249 110.391 32.8583 110.258C27.7261 107.737 22.5272 105.281 17.2617 103.092C14.6623 102.03 11.9962 100.968 9.26346 100.105C7.86376 99.641 6.46413 99.2429 4.99779 98.9111C3.79805 98.6456 2.46494 98.4466 1.2652 98.6456C1.06525 98.6456 1.06525 98.9774 1.2652 99.1101C5.19768 101.499 9.33012 103.689 13.5292 105.613C17.595 107.471 21.7274 109.13 26.1265 110.126C26.4597 110.192 26.593 109.727 26.2597 109.661L26.1931 109.727Z" fill="#231F20"/>
<path d="M44.523 125.72C44.523 126.184 44.523 126.649 44.523 127.047H44.9896C44.8563 126.184 44.6563 125.388 44.4564 124.525L43.9899 124.724C44.1898 125.056 44.3231 125.388 44.523 125.72V125.587C44.523 125.919 44.9896 125.919 45.0563 125.587C45.0563 125.454 45.0562 125.388 44.9229 125.255C44.9229 125.189 44.8563 125.056 44.7896 124.99C44.6563 124.791 44.5897 124.592 44.4564 124.393C44.3231 124.127 43.9232 124.326 43.9899 124.592C44.1232 125.388 44.3231 126.184 44.523 127.047C44.523 127.312 44.9896 127.246 44.9896 127.047C44.9896 126.582 44.9896 126.118 44.9896 125.72C44.9896 125.388 44.523 125.388 44.4564 125.72H44.523Z" fill="#231F20"/>
<path d="M44.9898 132.555C45.2564 133.948 45.523 135.275 45.7896 136.669V136.47C45.523 137.133 45.1897 137.731 44.9231 138.394L45.3897 138.527C45.3897 136.536 45.3897 134.479 45.523 132.488C45.523 132.157 45.0565 132.157 44.9898 132.488C44.9898 134.479 44.9231 136.536 44.8564 138.527C44.8564 138.726 45.1898 138.859 45.3231 138.66C45.523 138.129 45.7896 137.664 46.0562 137.2C46.1229 137.001 46.3228 136.802 46.2561 136.603C46.2561 136.337 46.1229 136.005 46.0562 135.74C45.8563 134.678 45.5897 133.55 45.3897 132.488C45.3897 132.157 44.8564 132.289 44.9231 132.621L44.9898 132.555Z" fill="#231F20"/>
<path d="M45.3225 149.078C45.3225 147.154 45.3225 145.229 45.3225 143.238C45.3225 142.309 45.2559 141.314 45.3225 140.385C45.3225 139.92 45.6558 139.522 45.7891 139.124C45.989 138.66 46.189 138.262 46.389 137.797H45.9223C46.1223 138.66 46.4556 139.655 46.2556 140.65C46.0556 141.646 45.9224 142.508 45.7224 143.437C45.3892 145.296 45.0559 147.22 44.7227 149.078C44.7227 149.41 45.1225 149.542 45.1892 149.211C45.5224 147.22 45.8557 145.229 46.2556 143.238C46.4556 142.309 46.6556 141.314 46.7889 140.385C46.8555 139.987 46.7889 139.589 46.6556 139.191C46.5223 138.66 46.4556 138.195 46.389 137.664C46.389 137.465 45.989 137.399 45.9223 137.664C45.7224 138.129 45.5225 138.527 45.3225 138.991C45.1226 139.39 44.8559 139.788 44.7893 140.252C44.7226 140.65 44.7893 141.049 44.7893 141.447C44.7893 141.845 44.7893 142.508 44.7893 143.039C44.7893 145.096 44.7893 147.154 44.7893 149.211C44.7893 151.268 45.3225 149.542 45.3225 149.211V149.078Z" fill="#231F20"/>
<path d="M47.6568 134.413C47.3902 135.74 47.1235 137.001 46.8569 138.328H47.3235C47.1902 137.797 47.1236 137.2 46.9903 136.602V136.802C47.3902 136.005 47.7901 135.143 48.19 134.346L47.7234 134.147C47.7234 134.214 47.7234 134.28 47.7234 134.413C47.7234 134.744 48.1233 134.877 48.19 134.545C48.19 134.479 48.19 134.413 48.19 134.28C48.19 134.015 47.8567 133.815 47.7234 134.081C47.3235 134.811 46.9903 135.474 46.657 136.204C46.5904 136.337 46.457 136.536 46.457 136.735C46.457 136.934 46.5237 137.133 46.5903 137.266C46.657 137.664 46.7236 138.062 46.7903 138.394C46.7903 138.66 47.2568 138.66 47.2568 138.394C47.5234 137.067 47.7901 135.806 48.0567 134.479C48.0567 134.147 47.6567 134.014 47.5901 134.346L47.6568 134.413Z" fill="#231F20"/>
<path d="M46.7888 134.545C46.5889 134.877 46.4555 135.209 46.2556 135.607H46.7222C46.4556 134.214 46.1223 132.82 45.8557 131.36C45.7224 130.63 45.5224 129.9 45.5224 129.17C45.5224 128.441 45.5224 127.711 45.5224 126.914L45.0559 127.047C45.6558 128.241 46.2556 129.502 46.8555 130.763C46.9888 131.095 47.1221 131.36 47.2554 131.692C47.3887 131.957 47.6553 132.422 47.6553 132.687C47.6553 132.953 47.322 133.351 47.1887 133.55C46.9888 133.882 46.8555 134.214 46.6556 134.545C46.5223 134.811 46.9221 135.076 47.1221 134.811C47.322 134.479 47.522 134.081 47.6553 133.749C47.7886 133.484 48.1219 133.086 48.1885 132.754C48.1885 132.488 47.9885 132.157 47.9219 131.957C47.7886 131.626 47.6553 131.294 47.4554 130.962C46.8555 129.569 46.189 128.175 45.4558 126.782C45.3225 126.582 44.9893 126.649 44.9893 126.914C44.9893 127.644 44.9893 128.374 44.9893 129.17C44.9893 129.569 44.9893 129.9 44.9893 130.232C44.9893 130.564 45.1225 130.962 45.1892 131.36C45.5224 132.82 45.7891 134.346 46.1223 135.873C46.1223 136.072 46.5222 136.138 46.5888 135.873L47.1221 134.811C47.2554 134.545 46.8555 134.28 46.6556 134.545H46.7888Z" fill="#231F20"/>
<path d="M78.1813 104.22C82.1805 103.092 86.5795 102.892 90.3787 104.75L90.512 104.286C87.9126 104.153 85.2465 105.082 82.7804 105.945C80.1143 106.808 77.5148 107.869 74.9154 108.997C69.6499 111.254 64.4511 113.709 59.3188 116.297L59.5854 116.695C64.7843 111.32 70.8496 106.409 78.1813 104.286C78.5146 104.22 78.3813 103.689 78.0481 103.821C70.6497 105.945 64.5176 110.922 59.2521 116.363C59.0522 116.562 59.2521 116.894 59.5188 116.761C64.451 114.24 69.4499 111.851 74.5155 109.661C77.1149 108.533 79.7144 107.471 82.3805 106.542C84.9132 105.68 87.7126 104.618 90.4454 104.75C90.712 104.75 90.7786 104.419 90.5786 104.286C86.6461 102.362 82.1139 102.561 77.9814 103.755C77.6482 103.821 77.7815 104.286 78.1147 104.22H78.1813Z" fill="#231F20"/>
<path d="M63.3857 109.86C61.8527 111.652 60.3863 113.443 58.9199 115.368L59.3865 115.567C60.5196 110.59 62.0526 105.547 64.2521 100.902C65.3185 98.7119 66.6516 96.7212 68.0513 94.7304C69.451 92.7397 70.784 90.4835 71.9171 88.1609L71.4506 88.0282C70.9173 95.8585 67.7181 103.49 63.3857 109.926C63.1857 110.192 63.6522 110.457 63.8522 110.192C68.3179 103.622 71.4506 96.0576 71.9838 88.0282C71.9838 87.7628 71.6505 87.6964 71.5172 87.8955C70.3841 90.218 69.051 92.4743 67.5847 94.5977C66.1184 96.7212 64.7854 98.6456 63.7189 100.968C61.5861 105.547 60.053 110.524 58.9199 115.434C58.9199 115.7 59.1866 115.832 59.3865 115.633C60.7862 113.775 62.2526 111.984 63.7856 110.258C63.9855 109.993 63.6523 109.661 63.4523 109.926L63.3857 109.86Z" fill="#231F20"/>
<path d="M66.3178 107.272C67.5842 105.082 68.5173 102.76 69.6504 100.504C70.2502 99.2428 71.3166 98.1147 72.1831 97.053C72.9829 96.0576 73.8494 95.1286 74.7159 94.1996C78.2485 90.4171 82.3142 87.0329 86.5799 84.1795C89.0461 82.5205 91.5789 81.0607 94.2449 79.7335L93.9784 79.3354C89.646 84.3786 85.1803 89.3554 80.248 93.8678C77.9152 95.9912 75.3158 97.783 72.983 99.9728C70.6502 102.163 68.2507 104.551 65.9845 107.007C65.7846 107.272 66.1178 107.604 66.3178 107.339C68.5173 104.883 70.8501 102.561 73.3162 100.305C75.7824 98.0484 78.2484 96.3894 80.5813 94.1996C85.4469 89.6872 89.9126 84.7104 94.3117 79.6672C94.5116 79.4681 94.3116 79.1362 94.045 79.2689C84.7804 83.914 76.3155 90.6163 70.1835 98.9774C69.7836 99.5083 69.3837 100.039 69.1838 100.703C68.8505 101.499 68.5172 102.229 68.184 103.025C67.5175 104.419 66.7843 105.812 66.0511 107.139C65.9178 107.405 66.3177 107.67 66.5177 107.405L66.3178 107.272Z" fill="#231F20"/>
<path d="M96.3781 93.6024C92.3123 95.7922 88.1798 97.9156 83.9141 99.641C79.6483 101.366 75.1827 103.092 70.5837 103.025L70.7836 103.423C73.1831 101.034 75.6493 98.7783 78.3154 96.7212C79.4485 95.8585 80.6481 95.3277 81.9145 94.7304C83.5142 94.0005 85.1139 93.3369 86.7135 92.6733C89.6462 91.4789 92.6456 90.3507 95.7116 89.5544C97.2446 89.1563 98.7776 88.8246 100.311 88.6255C101.844 88.4264 103.443 88.36 104.843 89.0236V88.5591C102.043 90.2844 99.1775 91.9433 96.3114 93.5359C96.0448 93.6687 96.3114 94.1332 96.578 94.0005C99.444 92.4079 102.31 90.8153 105.109 89.0236C105.243 88.9573 105.309 88.6918 105.109 88.5591C103.177 87.6301 101.044 87.9619 99.0442 88.2937C96.3781 88.6919 93.7786 89.4881 91.2458 90.3508C88.713 91.2135 86.3803 92.2088 83.9808 93.2042C82.7144 93.735 81.448 94.3323 80.1816 94.9295C79.0485 95.4604 78.182 96.124 77.1822 96.9203C74.7828 98.7783 72.5166 100.902 70.3837 103.025C70.2504 103.158 70.3837 103.423 70.5837 103.423C75.1827 103.423 79.7817 101.698 84.0474 99.9727C88.3798 98.2474 92.5123 96.1239 96.6447 93.8677C96.9113 93.735 96.6447 93.2705 96.3781 93.4033V93.6024Z" fill="#231F20"/>
</svg>
