<svg width="24" height="25" viewBox="0 0 24 25" fill="none" xmlns="http://www.w3.org/2000/svg">
<g id="heart">
<path id="Vector" d="M20.8401 5.10548C20.3294 4.59448 19.7229 4.18912 19.0555 3.91256C18.388 3.636 17.6726 3.49365 16.9501 3.49365C16.2276 3.49365 15.5122 3.636 14.8448 3.91256C14.1773 4.18912 13.5709 4.59448 13.0601 5.10548L12.0001 6.16548L10.9401 5.10548C9.90843 4.07379 8.50915 3.49419 7.05012 3.49419C5.59109 3.49419 4.19181 4.07379 3.16012 5.10548C2.12843 6.13717 1.54883 7.53644 1.54883 8.99548C1.54883 10.4545 2.12843 11.8538 3.16012 12.8855L4.22012 13.9455L12.0001 21.7255L19.7801 13.9455L20.8401 12.8855C21.3511 12.3747 21.7565 11.7683 22.033 11.1008C22.3096 10.4334 22.4519 9.71797 22.4519 8.99548C22.4519 8.27299 22.3096 7.55758 22.033 6.89012C21.7565 6.22266 21.3511 5.61623 20.8401 5.10548V5.10548Z" stroke="#1F1D1D" stroke-width="2" stroke-linecap="round" stroke-linejoin="round"/>
</g>
</svg>
