<svg width="64" height="64" viewBox="0 0 64 64" fill="none" xmlns="http://www.w3.org/2000/svg">
<g id="free-icon-needle-6181148">
<g id="Icon Container">
<path id="Vector" d="M47.8748 9.6C47.0123 9.8875 46.4623 10.175 45.7748 10.675C45.3873 10.95 33.5998 24.6 32.5498 25.975C32.4498 26.125 32.1998 25.85 31.3123 24.675C29.8373 22.7 27.5248 20.4 26.0123 19.3875C23.8873 17.9875 22.0873 17.1875 21.4998 17.4C21.1748 17.5125 20.8748 17.95 20.8748 18.3125C20.8748 18.6625 21.4623 19.1125 22.4623 19.5375C25.2248 20.7125 27.8623 23.0625 30.3998 26.6L31.1373 27.65L30.5748 28.3C24.6248 35.2625 9.91233 52.6625 9.72483 52.9375C9.24983 53.7 9.77483 54.625 10.6748 54.625C11.1748 54.625 11.4498 54.4125 18.4998 48.425C22.5248 45.0125 27.2498 41 28.9998 39.5125C34.8248 34.575 35.3873 34.1 35.4248 34.1375C35.9873 34.9375 37.4123 36.675 38.1248 37.425C39.7623 39.15 41.2623 40.2625 43.2373 41.2625C48.9748 44.125 57.0998 42.2375 61.2123 37.075C62.1998 35.8375 63.2498 33.725 63.6498 32.1875C63.8998 31.2125 63.9373 30.775 63.9248 28.875C63.9123 26.425 63.6873 25.0375 62.9873 23.0375C61.7373 19.5 59.4123 16.825 56.1373 15.1375L54.9123 14.5125L54.8373 13.85C54.6623 12.15 53.5873 10.6125 52.0248 9.85C51.2748 9.475 51.0748 9.4375 49.8748 9.4125C48.8748 9.3875 48.3998 9.425 47.8748 9.6ZM51.1248 11.5125C52.0623 11.9375 52.6873 12.6875 52.9248 13.6625L52.9998 14L52.2873 13.925C51.6498 13.85 51.4998 13.7875 51.1123 13.3625C50.5373 12.75 49.9498 12.5 49.0623 12.5C46.2748 12.5 45.4123 16.2375 47.8998 17.5125C48.4748 17.8 49.6123 17.825 50.1873 17.5625C50.7248 17.3 51.2998 16.725 51.5498 16.1875C51.7623 15.75 51.9248 15.6875 52.4748 15.825C52.8498 15.9375 52.8248 16.1 52.2623 16.9625C51.9498 17.45 51.3123 18.1 50.4248 18.8625C49.0248 20.05 48.6998 20.4875 48.8873 20.9625C49.0373 21.3625 49.5623 21.6625 49.9248 21.575C50.2873 21.4875 52.6248 19.5125 53.2873 18.75C53.5373 18.45 53.9248 17.85 54.1498 17.3875C54.3748 16.9375 54.5748 16.5375 54.5873 16.5125C54.7248 16.2625 57.3498 18 58.3623 19C60.0123 20.6625 61.2248 23.075 61.8373 25.925C62.1623 27.4375 62.1373 30.2125 61.7748 31.675C61.0248 34.675 59.5373 36.7375 56.8498 38.5125C53.8748 40.4625 50.3873 41.1125 46.4998 40.425C44.5998 40.0875 42.2498 38.7625 40.2873 36.9375C39.3623 36.0875 37.6248 34.0625 37.0373 33.1625C36.8373 32.85 36.8373 32.8375 37.1373 32.6C38.6748 31.3625 47.0248 24.1875 47.1748 23.975C47.4373 23.6 47.4248 23.35 47.1123 22.95C46.9248 22.7125 46.7373 22.625 46.4248 22.625C45.9623 22.625 47.6623 21.2125 28.1873 37.7375C22.9623 42.1625 18.3248 46.1125 17.8748 46.4875C17.4248 46.875 17.1498 47.075 17.2498 46.9375C17.6873 46.3625 45.5873 13.5 46.1373 12.9125C47.2373 11.7375 48.2498 11.2625 49.6873 11.2625C50.2998 11.2625 50.7248 11.325 51.1248 11.5125ZM49.1748 14.7C49.1123 14.925 49.1748 15.125 49.3498 15.375C49.6623 15.7875 49.5998 15.875 49.0498 15.875C48.6248 15.875 48.2498 15.525 48.2498 15.125C48.2498 14.775 48.6248 14.375 48.9498 14.375C49.2123 14.375 49.2498 14.4125 49.1748 14.7Z" fill="black"/>
<path id="Vector_2" d="M12.8749 16.2502C6.49994 17.1127 1.23744 21.9877 0.18744 27.9877C-0.62506 32.5752 1.31244 37.8377 4.82494 40.6252C7.04994 42.3877 10.0374 43.2502 12.7499 42.8877C13.5249 42.7877 13.7374 42.7127 13.9624 42.4377C14.3124 42.0377 14.3249 41.7502 13.9999 41.3377C13.7499 41.0127 13.7374 41.0127 11.9624 41.0377C10.6499 41.0502 9.98744 41.0002 9.41244 40.8377C6.62494 40.0877 4.58744 38.3877 3.23744 35.6877C2.48744 34.1752 2.17494 33.1252 1.98744 31.4252C1.36244 25.9252 4.86244 20.6877 10.3874 18.8127C12.2374 18.1752 14.7749 17.8877 16.5624 18.1002C17.7749 18.2377 18.3124 18.0877 18.4499 17.5502C18.5874 17.0127 18.3624 16.5877 17.8624 16.4127C17.2749 16.2252 13.8999 16.1127 12.8749 16.2502Z" fill="black"/>
</g>
</g>
</svg>
