<svg width="64" height="64" viewBox="0 0 64 64" fill="none" xmlns="http://www.w3.org/2000/svg">
<g id="free-icon-guarantee-certificate-3734879" clip-path="url(#clip0_358_36341)">
<g id="Icon Container">
<path id="Vector" d="M30.65 0.225193C29.8875 0.500195 29.725 0.637695 27.4 2.8377C25.9875 4.16269 25.5625 4.50019 25.1875 4.5752C24.8875 4.62519 23.825 4.53769 22.275 4.31269C19.6375 3.93769 19 3.9502 18.0375 4.37519C17.2625 4.7127 16.325 5.6377 16.0125 6.37519C15.875 6.7002 15.5625 8.0752 15.325 9.42519C15.075 10.7752 14.825 11.9752 14.7625 12.1127C14.525 12.5502 13.9 12.9752 11.8125 14.0627C10.5 14.7627 9.55001 15.3502 9.22501 15.6752C8.21251 16.6877 7.78751 18.2252 8.17501 19.5502C8.28751 19.9377 8.86251 21.2252 9.43751 22.3877C10.2125 23.9377 10.5 24.6502 10.5 25.0002C10.5 25.3502 10.2125 26.0627 9.43751 27.6127C8.86251 28.7752 8.28751 30.0627 8.17501 30.4502C7.78751 31.7752 8.22501 33.3627 9.23751 34.3502C9.53751 34.6377 10.5875 35.2877 11.8125 35.9252C12.9375 36.5252 13.9125 37.0752 13.95 37.1502C14 37.2252 10.875 40.4377 7.01251 44.3002C-0.537493 51.8627 -0.337494 51.6127 0.287507 52.3002C0.525007 52.5752 1.10001 52.7377 4.92501 53.6252C7.32501 54.1752 9.31251 54.6377 9.33751 54.6627C9.36251 54.6877 9.82501 56.6752 10.375 59.0752C11.2625 62.9002 11.425 63.4752 11.7 63.7127C12.3875 64.3377 12.075 64.6127 20.5875 56.1002L28.4875 48.2002L29.125 48.8002C30.0625 49.6752 30.7125 49.9377 32 49.9377C33.2875 49.9377 33.9375 49.6752 34.875 48.8002L35.5125 48.2002L43.4125 56.1002C51.9375 64.6127 51.6125 64.3377 52.3 63.7127C52.5875 63.4752 52.7375 62.9377 53.625 59.0752C54.175 56.6627 54.65 54.6877 54.6625 54.6627C54.6875 54.6502 56.6625 54.1752 59.075 53.6252C62.9375 52.7377 63.475 52.5877 63.725 52.3002C64.3375 51.6127 64.55 51.8627 56.9875 44.3002C53.125 40.4377 50 37.2252 50.05 37.1502C50.0875 37.0752 51.0625 36.5252 52.1875 35.9252C53.5 35.2377 54.45 34.6502 54.775 34.3252C55.7875 33.3127 56.2125 31.7752 55.825 30.4502C55.7125 30.0627 55.1375 28.7752 54.5625 27.6127C53.7875 26.0627 53.5 25.3502 53.5 25.0002C53.5 24.6502 53.7875 23.9377 54.5625 22.3877C55.1375 21.2252 55.7125 19.9377 55.825 19.5502C56.2125 18.2252 55.7875 16.6877 54.775 15.6752C54.45 15.3502 53.4875 14.7627 52.175 14.0627C51.025 13.4502 49.9 12.8002 49.675 12.5877C49.175 12.1502 49.1 11.9377 48.625 9.1377C48.4125 7.9502 48.125 6.7002 47.9875 6.37519C47.675 5.6377 46.7375 4.7127 45.975 4.37519C45 3.9502 44.425 3.93769 41.675 4.3252C39.3375 4.6502 39.075 4.66269 38.625 4.50019C38.3 4.37519 37.475 3.67519 36.1875 2.4627C34.8875 1.22519 34.0375 0.512695 33.65 0.350193C32.825 -0.0248032 31.5 -0.0748062 30.65 0.225193ZM32.8125 2.17519C33.05 2.2752 34.0375 3.1377 35.025 4.10019C37.7625 6.75019 38.0875 6.86269 41.8 6.3252C44.5 5.92519 44.675 5.92519 45.3125 6.28769C46.075 6.72519 46.2875 7.25019 46.75 9.93769C47.2 12.5877 47.525 13.4252 48.3875 14.1627C48.6375 14.3877 49.8 15.0627 50.95 15.6752C52.1125 16.2877 53.175 16.8752 53.3 16.9877C53.625 17.2627 53.9875 18.1002 54 18.5627C54 18.7877 53.55 19.8752 52.875 21.2502C52.25 22.5252 51.675 23.8877 51.6 24.2877C51.375 25.3502 51.5875 26.0877 52.8125 28.6002C53.4 29.8002 53.9125 31.0002 53.95 31.2502C54.05 31.8502 53.6625 32.7377 53.175 33.0877C52.975 33.2252 51.9125 33.8127 50.8125 34.3877C48.575 35.5627 47.7 36.2877 47.35 37.2502C47.225 37.5627 46.9375 38.9002 46.7 40.2252C46.45 41.6502 46.175 42.8002 46.0375 43.0377C45.75 43.5252 44.9625 44.0002 44.425 44.0002C44.2 44.0002 43.025 43.8502 41.8 43.6752C38.075 43.1377 37.8 43.2252 35.075 45.8627C33.2 47.6627 32.7125 48.0002 32 48.0002C31.2875 48.0002 30.825 47.6752 28.9375 45.8627C26.1875 43.2252 25.9125 43.1377 22.2 43.6752C19.5 44.0627 19.325 44.0752 18.7 43.7127C17.925 43.2752 17.75 42.8377 17.2875 40.2002C16.8125 37.5002 16.45 36.5502 15.6375 35.8502C15.3625 35.6252 14.2625 34.9627 13.175 34.3877C12.075 33.8127 11.025 33.2252 10.825 33.0877C10.4125 32.8002 10.0125 31.9877 10 31.4377C10 31.2127 10.45 30.1252 11.125 28.7502C12.4125 26.1127 12.625 25.3502 12.4 24.3002C12.325 23.9252 11.75 22.5627 11.125 21.2752C10.4625 19.8877 10 18.7877 10 18.5627C10.0125 18.0127 10.4125 17.2002 10.825 16.9127C11.025 16.7752 12.075 16.2002 13.1625 15.6252C16.425 13.9002 16.6 13.6502 17.2875 9.8377C17.55 8.35019 17.825 7.2127 17.9625 6.9627C18.25 6.47519 19.0375 6.00019 19.575 6.00019C19.8 6.00019 20.975 6.1502 22.2 6.3252C25.9 6.86269 26.225 6.7627 28.975 4.10019C29.975 3.1377 30.9625 2.2752 31.175 2.17519C31.6875 1.9627 32.275 1.9627 32.8125 2.17519ZM15.4125 41.0627C15.6 42.1252 15.8625 43.2752 16 43.6127C16.325 44.3627 17.25 45.2877 18.025 45.6252C19 46.0502 19.575 46.0627 22.3 45.6752C25.3125 45.2627 25.4875 45.2877 26.4375 46.2502L27.0625 46.8752L20 53.9377C16.125 57.8127 12.925 60.9752 12.9 60.9502C12.875 60.9252 12.475 59.2502 12.0125 57.2252C11.5375 55.2002 11.1 53.4377 11.025 53.2877C10.825 52.9252 10.5875 52.8502 6.81251 52.0002C4.96251 51.5752 3.33751 51.2002 3.20001 51.1627C3.01251 51.1127 4.21251 49.8502 8.95001 45.1127C12.2375 41.8252 14.9625 39.1252 15.0125 39.1252C15.05 39.1252 15.225 40.0002 15.4125 41.0627ZM55.05 45.1127C59.7875 49.8502 60.9875 51.1127 60.8 51.1627C60.6625 51.2002 59.05 51.5752 57.1875 52.0002C53.4 52.8627 53.175 52.9252 52.975 53.2877C52.9 53.4377 52.4625 55.2002 51.9875 57.2252C51.525 59.2502 51.125 60.9252 51.1 60.9502C51.075 60.9752 47.875 57.8127 44 53.9377L36.9375 46.8752L37.5625 46.2502C38.5125 45.2877 38.6875 45.2627 41.7 45.6752C44.425 46.0627 45 46.0502 45.975 45.6252C46.75 45.2877 47.675 44.3627 48 43.6127C48.1375 43.2752 48.4 42.1252 48.5875 41.0627C48.775 40.0002 48.95 39.1252 48.9875 39.1252C49.0375 39.1252 51.7625 41.8252 55.05 45.1127Z" fill="black"/>
<path id="Vector_2" d="M29.5999 10.2003C28.1999 10.4128 26.4999 10.9878 25.0874 11.7128C21.1124 13.7753 18.2624 17.5253 17.2999 22.0003C16.9749 23.4753 16.9749 26.5253 17.2999 28.0003C18.5874 33.9628 23.0749 38.4128 29.1249 39.7128C30.5249 40.0128 33.6499 40.0003 34.9749 39.7003C39.6249 38.6628 43.3374 35.7878 45.4249 31.6503C46.4749 29.5503 46.9374 27.5378 46.9374 25.0003C46.9374 23.0378 46.7874 22.0503 46.2374 20.3503C45.6624 18.5753 44.4999 16.4878 43.4499 15.3378C43.1124 14.9628 42.9374 14.8753 42.5749 14.8753C41.9999 14.8753 41.6249 15.2378 41.6249 15.7753C41.6249 16.0878 41.8124 16.4378 42.3624 17.1628C46.3499 22.4878 45.7124 29.8253 40.8749 34.4128C36.5874 38.4628 30.2124 39.1003 25.1374 35.9878C23.2749 34.8378 21.3749 32.7378 20.3499 30.6878C19.4249 28.8628 18.9249 26.3628 19.0499 24.2878C19.3374 19.6253 22.0874 15.4253 26.1999 13.3878C30.1874 11.4128 34.7749 11.5753 38.6374 13.8253C39.6999 14.4503 39.9499 14.4878 40.4249 14.1128C40.6749 13.9128 40.7499 13.7503 40.7499 13.3753C40.7499 12.7628 40.4499 12.5003 38.7874 11.6503C35.9624 10.2003 32.7749 9.70029 29.5999 10.2003Z" fill="black"/>
<path id="Vector_3" d="M37.6374 20.4628C37.3749 20.7253 35.5374 22.6378 33.5624 24.7253L29.9749 28.5128L29.4624 27.9128C26.8499 24.9253 25.9624 24.0003 25.6624 23.9253C24.9999 23.7503 24.3624 24.4378 24.5374 25.1378C24.6499 25.5753 29.3374 30.8628 29.6874 30.9503C29.8499 30.9878 30.0999 30.9878 30.2374 30.9378C30.3749 30.9003 32.0874 29.1878 34.0249 27.1503C35.9624 25.1128 37.9874 22.9753 38.5249 22.4253C39.6249 21.2753 39.7499 20.8753 39.1874 20.3128C38.7374 19.8503 38.2249 19.9003 37.6374 20.4628Z" fill="black"/>
</g>
</g>
<defs>
<clipPath id="clip0_358_36341">
<rect width="64" height="64" fill="white"/>
</clipPath>
</defs>
</svg>
