<svg width="64" height="64" viewBox="0 0 64 64" fill="none" xmlns="http://www.w3.org/2000/svg">
<g id="free-icon-shop-679744">
<g id="Icon Container">
<path id="Vector" d="M9.3749 6.1125C8.8374 6.2875 8.3249 6.5875 7.9874 6.9625C7.7999 7.15 5.9249 10.325 3.8249 14.0125C-0.425104 21.4625 -0.175104 20.875 0.199896 22.725C0.587396 24.65 1.9999 26.9 3.4874 27.925L3.9999 28.2875V42.2V56.125H3.3124C2.7374 56.125 2.5624 56.175 2.3124 56.4375C1.9124 56.825 1.9124 57.3 2.3124 57.6875L2.6124 58H31.9999H61.3874L61.6874 57.6875C62.0874 57.3 62.0874 56.825 61.6874 56.4375C61.4374 56.175 61.2624 56.125 60.6874 56.125H59.9999V42.2125V28.3125L60.7124 27.75C62.2124 26.5625 63.4249 24.5875 63.7999 22.725C64.1749 20.875 64.4249 21.4625 60.1749 14.0125C58.0749 10.325 56.1999 7.15 56.0124 6.9625C55.8374 6.7625 55.4624 6.475 55.1874 6.3375L54.6874 6.0625L32.1874 6.0375C19.8124 6.025 9.5499 6.0625 9.3749 6.1125ZM54.5374 8.15C54.7749 8.3625 61.3749 19.7625 61.3749 19.9375C61.3749 19.9625 60.7499 20 59.9874 20.025C58.7124 20.0625 58.5874 20.0875 58.3624 20.3625C58.0499 20.75 58.0624 21.225 58.3999 21.5875C58.6499 21.8625 58.7499 21.875 60.3374 21.875C62.2749 21.875 62.2124 21.8125 61.7124 23.25C60.9624 25.35 59.1749 27 57.0624 27.5625C55.9499 27.85 54.2374 27.8 53.2374 27.4625C51.5124 26.875 50.0999 25.7 49.2874 24.1875C48.8874 23.425 48.4749 22.075 48.5999 21.95C48.6374 21.9125 50.1999 21.875 52.0749 21.875H55.4874L55.7374 21.55C55.8874 21.3625 55.9999 21.1375 55.9999 21.05C55.9999 20.725 55.7124 20.275 55.4124 20.1375C54.9874 19.9375 9.0124 19.9375 8.5874 20.1375C8.2874 20.275 7.9999 20.725 7.9999 21.05C7.9999 21.1375 8.1124 21.3625 8.2624 21.55L8.5124 21.875H11.9249C13.7999 21.875 15.3624 21.9125 15.3999 21.95C15.5249 22.0625 15.1499 23.2625 14.7499 24.0875C13.9874 25.6125 12.5249 26.8625 10.7624 27.4625C9.7624 27.8 8.0499 27.85 6.9374 27.5625C4.7874 27 2.8874 25.2125 2.2499 23.1375C1.8249 21.8 1.7499 21.875 3.6499 21.875C5.1624 21.875 5.3249 21.85 5.5874 21.6C5.9374 21.275 5.9624 20.7625 5.6374 20.3625C5.4124 20.0875 5.2874 20.0625 4.0124 20.025C3.2499 20 2.6249 19.9625 2.6249 19.9375C2.6249 19.7625 9.2249 8.3625 9.4624 8.15L9.7624 7.875H31.9999H54.2374L54.5374 8.15ZM30.9999 21.9625C30.9874 22.275 30.6124 23.425 30.2999 24.0625C29.8624 24.9625 28.7999 26.1375 27.9124 26.7C27.5624 26.9375 26.8249 27.2625 26.2874 27.45C25.3999 27.75 25.1874 27.775 23.9374 27.7125C22.8499 27.6625 22.3999 27.5875 21.7749 27.3375C20.2249 26.7 18.8624 25.4625 18.1499 24.0625C17.8874 23.5375 17.4999 22.325 17.4999 22.0375C17.4999 21.9 18.7499 21.875 24.2499 21.875C27.9624 21.875 30.9999 21.9125 30.9999 21.9625ZM46.4999 22.0375C46.4999 22.3875 46.0874 23.6 45.7374 24.2625C45.0249 25.6 43.5499 26.85 42.0624 27.4C41.5249 27.5875 40.9249 27.6875 39.9999 27.725C38.8249 27.775 38.5749 27.7375 37.7124 27.45C36.5249 27.05 35.8874 26.6625 35.0249 25.825C34.0249 24.8625 33.3624 23.6625 33.0624 22.275L32.9749 21.875H39.7374C45.2499 21.875 46.4999 21.9 46.4999 22.0375ZM17.3499 26.25C20.2124 30.1 25.9874 30.775 29.7374 27.7C30.4624 27.1 31.3499 26.075 31.6999 25.425C31.8249 25.1875 31.9624 25 31.9999 25C32.0374 25 32.1749 25.1875 32.2999 25.425C32.9749 26.6875 34.4249 28.0125 35.9374 28.75C37.2249 29.3875 38.2749 29.625 39.7624 29.625C42.8374 29.625 45.5499 28.125 47.1749 25.5125L47.5249 24.975L48.0499 25.7625C49.0999 27.3125 50.7374 28.5875 52.5249 29.2125C53.7249 29.65 56.0249 29.7625 57.2374 29.45C57.6624 29.3375 58.0499 29.25 58.0749 29.25C58.0999 29.25 58.1249 35.3 58.1249 42.6875V56.125H56.5624H54.9999V44.45C54.9999 32.8375 54.9999 32.7875 54.7374 32.45L54.4874 32.125H48.0499C41.7874 32.125 41.6124 32.1375 41.3749 32.375C41.1249 32.625 41.1249 32.7875 41.1249 44.375V56.125H23.4999H5.8749V42.6875C5.8749 35.3 5.8999 29.25 5.9374 29.25C5.9624 29.25 6.3124 29.3375 6.7124 29.4375C7.6374 29.675 9.6999 29.675 10.7499 29.4375C12.7249 28.975 14.9249 27.4 15.9624 25.725C16.3874 25.0375 16.4374 24.9875 16.5874 25.2C16.6749 25.3375 17.0249 25.8 17.3499 26.25ZM53.1249 42.5625V51.125H48.0624H42.9999V42.5625V34H48.0624H53.1249V42.5625ZM53.1249 54.5625V56.125H48.0624H42.9999V54.5625V53H48.0624H53.1249V54.5625Z" fill="black"/>
<path id="Vector_2" d="M9.2625 32.45C9 32.775 9 32.8625 9 42.5625C9 52.0125 9.0125 52.3625 9.2375 52.6375L9.475 52.9375L23.35 52.975L37.2375 53L37.5875 52.7L37.9375 52.4V42.525C37.9375 32.9875 37.925 32.6375 37.7 32.3875L37.4625 32.125H23.4875H9.5125L9.2625 32.45ZM36.1 42.525L36.0625 51.0625L23.475 51.1L10.875 51.125V42.5625V34H23.5H36.125L36.1 42.525Z" fill="black"/>
</g>
</g>
</svg>
