<svg width="64" height="64" viewBox="0 0 64 64" fill="none" xmlns="http://www.w3.org/2000/svg">
<g id="002-delivery-truck 1">
<g id="Delivery-Truck">
<path id="Vector" d="M49.6119 24.0405H46.0303L47.1094 11.5773C47.1114 11.5547 47.1117 11.5325 47.1118 11.5102C47.1118 11.5083 47.1121 11.5066 47.1121 11.5047C47.1121 11.5043 47.1121 11.5041 47.1121 11.5038C47.1121 11.1645 46.9086 10.8656 46.6096 10.7356C46.607 10.7345 46.6046 10.7331 46.602 10.732C46.5835 10.7242 46.5643 10.7175 46.5449 10.711C46.5377 10.7086 46.5308 10.7057 46.5236 10.7035C46.5078 10.6987 46.4916 10.6949 46.4755 10.691C46.4642 10.6883 46.4533 10.6851 46.4418 10.6828C46.4277 10.68 46.413 10.6782 46.3986 10.6761C46.385 10.6741 46.3717 10.6718 46.358 10.6705C46.3557 10.6703 46.3536 10.6699 46.3513 10.6696C46.3366 10.6683 46.3222 10.6685 46.3076 10.668C46.2978 10.6676 46.2883 10.6665 46.2785 10.6665H46.268C46.2672 10.6665 46.2663 10.6665 46.2655 10.6665H29.2239C28.7639 10.6665 28.3906 11.042 28.3906 11.5048C28.3906 11.9664 28.7639 12.343 29.2239 12.343H45.3701L43.7117 31.4973C43.7114 31.4988 43.7114 31.5002 43.7112 31.5017L43.2928 36.3346H14.3356L14.82 31.3053H20.3335C20.7939 31.3053 21.1669 30.93 21.1669 30.467C21.1669 30.0041 20.7939 29.6288 20.3335 29.6288H14.9816L16.0042 19.0113H24.7794C25.2397 19.0113 25.6128 18.636 25.6128 18.1731C25.6128 17.7101 25.2397 17.3348 24.7794 17.3348H16.1658L16.6467 12.343H25.8905C26.3494 12.343 26.7239 11.9664 26.7239 11.5048C26.7239 11.042 26.3494 10.6665 25.8905 10.6665H15.8903C15.8899 10.6665 15.8896 10.6666 15.8891 10.6666C15.4977 10.6665 15.1581 10.9437 15.076 11.3279C15.0754 11.3307 15.0744 11.3334 15.0739 11.3362C15.0697 11.3571 15.0669 11.3785 15.0641 11.3999C15.0633 11.4067 15.0619 11.4132 15.0612 11.42C15.0611 11.4214 15.0608 11.4226 15.0607 11.424L14.4913 17.3348H4.38901C3.92867 17.3348 3.55566 17.7101 3.55566 18.1731C3.55566 18.636 3.92867 19.0113 4.38901 19.0113H14.3298L13.3071 29.6288H10.3338C9.87345 29.6288 9.50044 30.0041 9.50044 30.467C9.50044 30.93 9.87345 31.3053 10.3338 31.3053H13.1456L12.5887 37.086C12.5886 37.0869 12.5886 37.0878 12.5885 37.0886L11.7275 46.0277C11.7274 46.0287 11.7273 46.0299 11.7272 46.0307L11.7268 46.034C11.7257 46.0456 11.7258 46.057 11.7252 46.0686C11.7244 46.0841 11.7228 46.0991 11.7228 46.1148C11.7228 46.1155 11.7229 46.1161 11.7229 46.1169C11.7229 46.1385 11.7245 46.1597 11.726 46.181C11.7267 46.1878 11.7265 46.1947 11.7273 46.2014C11.7295 46.2231 11.7332 46.2444 11.737 46.2657C11.7382 46.2719 11.7387 46.2783 11.7399 46.2845C11.7432 46.3006 11.7477 46.3161 11.7519 46.3318C11.7548 46.3429 11.7572 46.3542 11.7605 46.365C11.7615 46.3681 11.7628 46.371 11.7637 46.3741C11.804 46.4988 11.8725 46.6108 11.9618 46.7023C11.9635 46.7039 11.9648 46.7058 11.9665 46.7074C11.9754 46.7163 11.985 46.7244 11.9944 46.7329C12.0518 46.7859 12.1167 46.8308 12.1877 46.866C12.2025 46.8734 12.2171 46.8811 12.2322 46.8875C12.2367 46.8895 12.2416 46.8908 12.2463 46.8926C12.2672 46.901 12.2882 46.909 12.3098 46.9158C12.3118 46.9164 12.3137 46.9167 12.3157 46.9174C12.3404 46.9248 12.3653 46.9313 12.3907 46.9365C12.3941 46.9372 12.3975 46.9374 12.4007 46.9381C12.4249 46.9427 12.4493 46.9466 12.4741 46.949C12.4746 46.949 12.4751 46.9491 12.4756 46.9493C12.5029 46.9519 12.5301 46.9533 12.5569 46.9533C12.5573 46.9533 12.5577 46.9532 12.5582 46.9532H16.268C16.6777 50.0774 19.3405 52.4972 22.5567 52.4972C25.7726 52.4972 28.4355 50.0774 28.8451 46.9532H42.212C42.6217 50.0774 45.2845 52.4972 48.5005 52.4972C51.7165 52.4972 54.3795 50.0774 54.7893 46.9532H58.5C58.5006 46.9532 58.5013 46.9533 58.5018 46.9533C58.5296 46.9533 58.5569 46.9516 58.5841 46.9489C58.5889 46.9485 58.5936 46.9475 58.5985 46.9469C58.6202 46.9443 58.6417 46.9413 58.6628 46.9371C58.6719 46.9353 58.6807 46.9328 58.6897 46.9307C58.7061 46.9269 58.7225 46.9229 58.7385 46.9181C58.7494 46.9148 58.7599 46.911 58.7706 46.9073C58.7843 46.9027 58.7979 46.8977 58.8114 46.8923C58.8229 46.8877 58.8339 46.8826 58.8452 46.8776C58.8574 46.8719 58.8696 46.8661 58.8815 46.86C58.8928 46.8541 58.9037 46.8481 58.9146 46.8419C58.9261 46.8351 58.9374 46.8282 58.9486 46.8211C58.9591 46.8144 58.9695 46.8075 58.9795 46.8004C58.9908 46.7924 59.0016 46.7841 59.0126 46.7756C59.0217 46.7683 59.0309 46.7612 59.0398 46.7536C59.0513 46.7438 59.0621 46.7337 59.073 46.7233C59.0805 46.716 59.0884 46.7088 59.0957 46.7012C59.1073 46.6894 59.1183 46.6769 59.1293 46.6642C59.1352 46.6574 59.1413 46.6508 59.147 46.6439C59.1592 46.6287 59.1703 46.6131 59.1814 46.5973C59.1852 46.5918 59.1894 46.5867 59.1931 46.5811C59.2066 46.5606 59.2194 46.5396 59.2312 46.5179C59.2321 46.5166 59.233 46.5154 59.2335 46.5139C59.2461 46.4907 59.2576 46.4669 59.268 46.4423C59.2708 46.4352 59.2731 46.428 59.2758 46.4209C59.2826 46.4036 59.2893 46.3863 59.295 46.3683C59.2986 46.3567 59.3013 46.3447 59.3045 46.333C59.3082 46.319 59.3121 46.3051 59.3152 46.2909C59.318 46.2783 59.3197 46.2653 59.3218 46.2525C59.3237 46.2412 59.3262 46.2301 59.3276 46.2186C59.363 45.9338 60.0155 40.6674 60.307 37.2621C60.3073 37.2588 60.3074 37.2555 60.3078 37.2522C60.3916 36.2706 60.4454 35.444 60.4454 34.9379C60.4454 28.9291 55.5855 24.0405 49.6119 24.0405ZM45.885 25.7172H49.2943L48.8589 30.7463H45.4496L45.885 25.7172ZM22.5569 50.8206C19.9772 50.8206 17.8785 48.7095 17.8785 46.1147C17.8785 43.5199 19.9773 41.4088 22.5569 41.4088C25.1365 41.4088 27.2352 43.5199 27.2352 46.1147C27.2352 48.7095 25.1365 50.8206 22.5569 50.8206ZM48.5005 50.8206C45.9209 50.8206 43.8223 48.7095 43.8223 46.1147C43.8223 43.5199 45.921 41.4088 48.5005 41.4088C51.0802 41.4088 53.179 43.5199 53.179 46.1147C53.179 48.7095 51.0802 50.8206 48.5005 50.8206ZM57.7637 45.2761H54.7895C54.38 42.1516 51.717 39.7317 48.5007 39.7317C45.2847 39.7317 42.6217 42.1517 42.2122 45.2761H28.8455C28.4359 42.1516 25.7731 39.7317 22.5569 39.7317C19.3407 39.7317 16.6777 42.1517 16.2681 45.2761H13.4743L14.1742 38.0107H44.0564V38.0112C44.0569 38.0112 44.0572 38.0112 44.0577 38.0112C44.0856 38.0112 44.1132 38.0096 44.1406 38.0068C44.1457 38.0063 44.1507 38.0052 44.1558 38.0046C44.1776 38.002 44.1992 37.9989 44.2206 37.9946C44.2298 37.9927 44.2388 37.9901 44.2479 37.9879C44.2646 37.9839 44.2812 37.98 44.2974 37.9751C44.3086 37.9717 44.3191 37.9677 44.3299 37.9639C44.3439 37.959 44.3579 37.9542 44.3714 37.9486C44.3831 37.9438 44.3943 37.9384 44.4057 37.933C44.418 37.9273 44.4303 37.9216 44.4422 37.9154C44.4536 37.9093 44.4647 37.9029 44.4759 37.8964C44.4873 37.8897 44.4987 37.8828 44.5098 37.8757C44.5206 37.8687 44.5308 37.8613 44.5411 37.8539C44.5521 37.8461 44.5628 37.838 44.5735 37.8296C44.583 37.8219 44.5924 37.814 44.6018 37.8058C44.6123 37.7967 44.6227 37.7873 44.6327 37.7776C44.6411 37.7694 44.6496 37.761 44.6578 37.7524C44.6678 37.7419 44.6775 37.7311 44.687 37.72C44.6945 37.7113 44.7018 37.7026 44.7089 37.6936C44.7181 37.6819 44.7269 37.6698 44.7356 37.6576C44.7421 37.6485 44.7485 37.6393 44.7547 37.6299C44.7628 37.6173 44.7706 37.6043 44.778 37.5911C44.7837 37.5813 44.7895 37.5715 44.7946 37.5614C44.8016 37.5482 44.8076 37.5348 44.8139 37.5213C44.8188 37.5104 44.8238 37.4998 44.8282 37.4886C44.8337 37.4754 44.8382 37.4619 44.843 37.4484C44.8471 37.4364 44.8515 37.4245 44.8551 37.4122C44.8588 37.3992 44.8618 37.3859 44.8651 37.3727C44.8683 37.3594 44.8719 37.3462 44.8745 37.3327C44.877 37.3195 44.8786 37.3061 44.8806 37.2927C44.8826 37.2788 44.8849 37.2652 44.8862 37.2511C44.8865 37.2491 44.8869 37.2472 44.887 37.2452L45.3047 32.4224H49.6117C52.1649 32.4224 53.3165 33.7531 54.5355 35.1621C55.5414 36.3246 56.6645 37.6216 58.5734 37.9381C58.3309 40.5166 57.939 43.8267 57.7637 45.2761ZM58.7158 36.2582C57.4775 36.0042 56.7156 35.1285 55.7926 34.0618C54.6382 32.7279 53.229 31.1 50.5275 30.7966L50.9586 25.8176C55.3769 26.4749 58.7787 30.3139 58.7787 34.9381C58.7787 35.2523 58.7554 35.7087 58.7158 36.2582Z" fill="#1F1D1D" stroke="#1F1D1D" stroke-width="0.2"/>
<path id="Vector_2" d="M22.5568 43.041C20.872 43.041 19.5012 44.4198 19.5012 46.1146C19.5012 47.8095 20.872 49.1883 22.5568 49.1883C24.2416 49.1883 25.6125 47.8095 25.6125 46.1146C25.6125 44.4199 24.2416 43.041 22.5568 43.041ZM22.5568 47.5117C21.7909 47.5117 21.1679 46.8851 21.1679 46.1146C21.1679 45.3442 21.7909 44.7175 22.5568 44.7175C23.3227 44.7175 23.9458 45.3442 23.9458 46.1146C23.9458 46.8851 23.3226 47.5117 22.5568 47.5117Z" fill="#1F1D1D"/>
<path id="Vector_3" d="M48.5012 43.041C46.8164 43.041 45.4456 44.4198 45.4456 46.1146C45.4456 47.8095 46.8164 49.1883 48.5012 49.1883C50.186 49.1883 51.5568 47.8095 51.5568 46.1146C51.5568 44.4199 50.186 43.041 48.5012 43.041ZM48.5012 47.5117C47.7353 47.5117 47.1123 46.8851 47.1123 46.1146C47.1123 45.3442 47.7353 44.7175 48.5012 44.7175C49.2671 44.7175 49.8901 45.3442 49.8901 46.1146C49.8901 46.8851 49.2671 47.5117 48.5012 47.5117Z" fill="#1F1D1D"/>
<path id="Vector_4" d="M11.4448 24.0405H7.3707C6.91036 24.0405 6.53735 24.4158 6.53735 24.8788C6.53735 25.3417 6.91036 25.7171 7.3707 25.7171H11.4448C11.9051 25.7171 12.2781 25.3417 12.2781 24.8788C12.2781 24.4158 11.9051 24.0405 11.4448 24.0405Z" fill="#1F1D1D" stroke="#1F1D1D" stroke-width="0.2"/>
</g>
</g>
</svg>
